<svg width="1920" height="1080" viewBox="0 0 1920 1080" fill="none" xmlns="http://www.w3.org/2000/svg">
<rect width="1920" height="1080" fill="#355B32"/>
<rect x="621" y="308" width="677" height="464" rx="15" fill="white"/>
<path d="M678.62 406.136H696.188V409.304H678.62V406.136ZM683.768 383.996H687.944V388.316H683.768V383.996ZM670.484 386.48H701.804V393.644H697.592V389.72H674.552V393.644H670.484V386.48ZM678.476 391.232H696.116V399.296H678.476V396.2H691.796V394.328H678.476V391.232ZM678.656 400.916H698.852V410.276H694.532V404.084H678.656V400.916ZM676.1 391.232H680.204V410.312H676.1V391.232ZM674.12 378.956H685.46V382.34H674.12V378.956ZM688.7 378.956H702.668V382.34H688.7V378.956ZM674.264 376.148L678.296 377.228C676.892 380.468 674.588 383.744 672.464 385.796C671.636 385.148 669.908 383.996 668.936 383.492C671.096 381.692 673.148 378.884 674.264 376.148ZM688.916 376.148L693.02 377.156C691.724 380.252 689.492 383.24 687.332 385.112C686.468 384.464 684.632 383.528 683.552 383.06C685.856 381.404 687.872 378.776 688.916 376.148ZM675.452 381.584L679.124 380.612C680.024 381.836 681.032 383.564 681.464 384.716L677.576 385.832C677.252 384.716 676.316 382.88 675.452 381.584ZM691.544 381.692L695.324 380.684C696.368 381.872 697.628 383.6 698.204 384.752L694.208 385.868C693.74 384.788 692.552 382.952 691.544 381.692ZM722.468 388.028V391.124H733.376V388.028H722.468ZM722.468 381.62V384.644H733.376V381.62H722.468ZM718.58 377.948H737.48V394.76H718.58V377.948ZM718.328 397.856H737.876V401.744H718.328V397.856ZM715.808 405.2H739.064V409.088H715.808V405.2ZM705.26 378.488H717.212V382.52H705.26V378.488ZM705.62 388.856H716.6V392.852H705.62V388.856ZM704.864 402.536C707.96 401.744 712.568 400.304 716.888 398.9L717.644 403.04C713.612 404.408 709.292 405.812 705.836 406.928L704.864 402.536ZM709.256 380.072H713.36V402.212L709.256 402.86V380.072ZM726.176 379.496H729.812V393.068H730.208V407.036H725.78V393.068H726.176V379.496ZM750.944 381.548V384.284H765.092V381.548H750.944ZM746.408 377.876H769.916V387.956H746.408V377.876ZM755.408 395.912H760.088V399.152C760.088 402.968 757.928 407.612 744.896 410.564C744.356 409.628 742.988 407.936 741.944 407.036C754.328 404.804 755.408 401.456 755.408 399.044V395.912ZM759.296 405.452L761.384 402.248C765.272 403.4 771.176 405.416 774.2 406.82L772.004 410.492C769.196 409.052 763.364 406.82 759.296 405.452ZM744.86 390.296H771.572V403.04H766.856V394.256H749.36V403.544H744.86V390.296ZM787.376 386.048H800.696V389.648H787.376V386.048ZM778.52 405.992H809.624V409.52H778.52V405.992ZM780.608 377.768H790.688V381.26H780.608V377.768ZM789.32 377.768H790.04L790.796 377.588L793.604 378.992C790.94 386.048 785.252 391.196 779.204 394.112C778.628 393.212 777.476 391.736 776.612 390.98C781.976 388.712 787.34 383.816 789.32 378.488V377.768ZM797.528 376.544C800.012 382.412 805.052 387.632 811.316 390.008C810.308 390.872 809.048 392.492 808.4 393.608C801.776 390.584 796.844 384.824 793.856 377.696L797.528 376.544ZM778.88 384.248L781.184 381.872C782.804 382.772 784.784 384.176 785.72 385.256L783.308 387.884C782.372 386.804 780.428 385.256 778.88 384.248ZM803.072 376.76L806.312 379.064C804.332 380.756 801.992 382.52 800.192 383.672L797.6 381.656C799.328 380.432 801.704 378.344 803.072 376.76ZM807.14 380.972L810.308 383.204C808.256 385.004 805.772 386.876 803.864 388.064L801.272 386.048C803.144 384.752 805.664 382.628 807.14 380.972ZM787.7 395.156V398.324H800.012V395.156H787.7ZM783.488 391.7H804.476V401.744H783.488V391.7ZM785.576 402.212L789.536 401.204C790.472 402.5 791.264 404.336 791.588 405.56L787.448 406.748C787.196 405.524 786.404 403.616 785.576 402.212ZM798.428 401.168L802.604 402.068C801.704 403.832 800.876 405.452 800.156 406.604L796.376 405.74C797.096 404.48 797.996 402.536 798.428 401.168ZM814.196 389.828H845.948V393.608H814.196V389.828ZM827.624 391.952H832.052V406.172C832.052 408.26 831.584 409.196 830.108 409.772C828.668 410.348 826.688 410.384 823.952 410.384C823.7 409.268 823.088 407.72 822.512 406.676C824.204 406.784 826.292 406.784 826.868 406.748C827.444 406.712 827.624 406.568 827.624 406.064V391.952ZM831.44 393.104C834.032 398.828 839.252 403.256 846.38 405.128C845.444 406.028 844.148 407.756 843.536 408.944C836.084 406.46 831.044 401.276 827.984 394.148L831.44 393.104ZM840.548 393.464L844.256 396.2C841.664 398.252 838.604 400.412 836.264 401.744L833.312 399.368C835.616 397.892 838.712 395.408 840.548 393.464ZM816.176 396.416L819.056 393.752C821.252 394.904 824.24 396.704 825.716 398.072L822.656 401.06C821.324 399.656 818.444 397.676 816.176 396.416ZM813.872 404.408C817.58 403.148 823.556 400.88 829.028 398.72L829.892 402.428C825.212 404.516 820.136 406.676 816.212 408.296L813.872 404.408ZM817.544 384.032H838.604V387.92H817.544V384.032ZM837.452 378.2H837.956L838.712 378.02L842.204 378.236C842.132 382.664 841.772 387.668 841.34 391.808L836.804 391.592C837.2 387.308 837.416 381.728 837.452 378.704V378.2ZM816.356 378.2H838.712V382.124H816.356V378.2Z" fill="#355B32"/>
<rect x="779.5" y="463.5" width="429" height="56" rx="9.5" fill="white" stroke="#909090"/>
<rect x="779.5" y="562.5" width="429" height="56" rx="9.5" fill="white" stroke="#909090"/>
<path d="M693.503 482.04H694.943V488.904C694.943 492.408 694.487 497.04 690.263 499.8C690.047 499.488 689.615 498.984 689.279 498.72C693.239 496.296 693.503 491.976 693.503 488.904V482.04ZM694.343 494.88L695.471 494.064C696.575 495.36 697.919 497.112 698.519 498.216L697.319 499.176C696.743 498.048 695.471 496.224 694.343 494.88ZM690.431 478.992H697.943V493.704H696.503V480.48H691.847V493.752H690.431V478.992ZM698.543 487.2H711.071V488.88H698.543V487.2ZM705.863 488.16C706.775 492.384 708.719 496.2 711.551 498.024C711.143 498.312 710.615 498.96 710.327 499.416C707.327 497.256 705.359 493.224 704.303 488.52L705.863 488.16ZM700.367 500.064C700.247 499.656 699.911 498.96 699.647 498.6C700.055 498.408 700.703 497.952 700.703 496.992V478.344H702.383V498.456C702.383 498.456 700.367 499.44 700.367 500.064ZM708.575 478.896L710.231 479.424C708.863 482.136 706.655 484.752 704.519 486.456C704.231 486.12 703.583 485.448 703.199 485.136C705.311 483.624 707.351 481.32 708.575 478.896ZM700.367 500.064L700.175 498.48L700.895 497.784L705.935 495.984C705.935 496.464 706.007 497.184 706.079 497.544C701.447 499.44 700.775 499.728 700.367 500.064ZM718.631 480.432V484.296H730.319V480.432H718.631ZM716.879 478.848H732.167V485.904H716.879V478.848ZM713.543 487.752H735.167V489.432H713.543V487.752ZM718.679 491.544H730.919V493.224H718.679V491.544ZM730.271 491.544H732.191C732.191 491.544 732.143 492.12 732.095 492.384C731.471 496.608 730.895 498.48 729.983 499.272C729.407 499.776 728.831 499.896 727.895 499.944C727.079 499.992 725.495 499.944 723.815 499.848C723.767 499.344 723.527 498.624 723.191 498.144C724.895 498.288 726.647 498.312 727.295 498.312C727.871 498.312 728.183 498.288 728.471 498.096C729.191 497.52 729.743 495.744 730.247 491.808L730.271 491.544ZM719.135 488.208L721.031 488.496C720.383 490.608 719.495 493.224 718.799 494.88L716.879 494.544C717.599 492.888 718.535 490.224 719.135 488.208ZM739.697 498.136C739.277 498.136 738.916 497.986 738.615 497.685C738.314 497.384 738.163 497.023 738.163 496.602C738.163 496.182 738.314 495.821 738.615 495.52C738.916 495.219 739.277 495.068 739.697 495.068C740.118 495.068 740.479 495.219 740.78 495.52C741.081 495.821 741.232 496.182 741.232 496.602C741.232 496.881 741.161 497.136 741.018 497.369C740.882 497.602 740.697 497.79 740.464 497.932C740.237 498.068 739.982 498.136 739.697 498.136ZM739.697 488.42C739.277 488.42 738.916 488.27 738.615 487.969C738.314 487.668 738.163 487.307 738.163 486.886C738.163 486.466 738.314 486.105 738.615 485.804C738.916 485.503 739.277 485.352 739.697 485.352C740.118 485.352 740.479 485.503 740.78 485.804C741.081 486.105 741.232 486.466 741.232 486.886C741.232 487.165 741.161 487.42 741.018 487.653C740.882 487.886 740.697 488.074 740.464 488.216C740.237 488.352 739.982 488.42 739.697 488.42Z" fill="black"/>
<path d="M692.759 585.752L694.247 586.28C693.623 588.08 692.663 589.928 690.911 590.984L689.519 590.024C691.151 589.064 692.207 587.384 692.759 585.752ZM695.687 585.344H697.319V590.048C697.319 590.696 697.559 590.816 698.903 590.816C699.527 590.816 702.671 590.816 703.511 590.816C704.591 590.816 704.783 590.504 704.879 588.416C705.263 588.656 705.911 588.896 706.367 588.992C706.151 591.632 705.647 592.28 703.655 592.28C703.103 592.28 699.335 592.28 698.807 592.28C696.311 592.28 695.687 591.824 695.687 590.048V585.344ZM696.839 583.952L697.751 582.896C699.215 583.544 701.015 584.6 701.927 585.416L700.967 586.592C700.103 585.752 698.303 584.624 696.839 583.952ZM705.863 586.736L707.159 585.848C708.791 587.168 710.639 589.088 711.455 590.432L710.063 591.416C709.295 590.096 707.495 588.104 705.863 586.736ZM704.663 583.856L706.223 584.552C702.695 589.256 696.599 592.256 690.335 594.032C690.143 593.648 689.615 592.904 689.279 592.52C695.591 590.984 701.495 588.152 704.663 583.856ZM699.407 592.664H701.255V599.12H699.407V592.664ZM692.255 594.032H694.031V600.944H692.255V594.032ZM706.967 594.032H708.767V600.872H706.967V594.032ZM693.143 598.208H707.927V599.888H693.143V598.208ZM699.407 578.864H701.255V581.984H699.407V578.864ZM690.239 580.904H710.591V585.608H708.767V582.536H691.991V585.608H690.239V580.904ZM733.199 589.376H734.927C734.927 589.376 734.903 589.928 734.879 590.192C734.327 596.672 733.799 599.168 732.935 600.056C732.479 600.56 731.999 600.752 731.279 600.776C730.679 600.824 729.575 600.824 728.399 600.776C728.375 600.272 728.183 599.576 727.919 599.096C729.071 599.24 730.127 599.24 730.583 599.24C730.991 599.24 731.255 599.192 731.471 598.952C732.167 598.304 732.719 595.856 733.199 589.688V589.376ZM723.023 580.256H731.927V581.912H723.023V580.256ZM724.175 583.424L725.855 583.52C725.663 585.92 725.327 589.064 725.063 590.936H723.359C723.671 588.992 724.007 585.776 724.175 583.424ZM723.863 589.376H733.727V590.936H723.863V589.376ZM722.207 594.104H731.399V595.712H722.207V594.104ZM731.183 580.256H731.375L731.663 580.184L732.911 580.328C732.695 583.16 732.239 587.384 731.807 590.528L730.103 590.408C730.535 587.264 731.015 582.728 731.183 580.472V580.256ZM713.591 580.136H721.847V581.792H713.591V580.136ZM715.943 587.528H721.151V597.896H715.943V596.288H719.567V589.136H715.943V587.528ZM716.687 580.928L718.367 581.288C717.503 585.824 716.111 590.192 713.903 593.072C713.783 592.64 713.375 591.608 713.063 591.128C714.911 588.68 716.039 584.936 716.687 580.928ZM715.151 587.528H716.735V599.84H715.151V587.528ZM739.697 599.136C739.277 599.136 738.916 598.986 738.615 598.685C738.314 598.384 738.163 598.023 738.163 597.602C738.163 597.182 738.314 596.821 738.615 596.52C738.916 596.219 739.277 596.068 739.697 596.068C740.118 596.068 740.479 596.219 740.78 596.52C741.081 596.821 741.232 597.182 741.232 597.602C741.232 597.881 741.161 598.136 741.018 598.369C740.882 598.602 740.697 598.79 740.464 598.932C740.237 599.068 739.982 599.136 739.697 599.136ZM739.697 589.42C739.277 589.42 738.916 589.27 738.615 588.969C738.314 588.668 738.163 588.307 738.163 587.886C738.163 587.466 738.314 587.105 738.615 586.804C738.916 586.503 739.277 586.352 739.697 586.352C740.118 586.352 740.479 586.503 740.78 586.804C741.081 587.105 741.232 587.466 741.232 587.886C741.232 588.165 741.161 588.42 741.018 588.653C740.882 588.886 740.697 589.074 740.464 589.216C740.237 589.352 739.982 589.42 739.697 589.42Z" fill="black"/>
<rect x="901" y="661" width="118" height="54" rx="5" fill="#355B32"/>
<path d="M943.536 683.536H952.44V685.096H943.536V683.536ZM937.56 696.856H958.464V698.368H937.56V696.856ZM939 677.776H946.104V679.288H939V677.776ZM945.528 677.776H945.84L946.176 677.68L947.328 678.28C945.528 682.888 941.52 686.32 937.704 688.096C937.464 687.712 936.984 687.088 936.624 686.776C940.152 685.288 944.04 681.928 945.528 678.112V677.776ZM949.584 676.912C951.432 680.992 955.104 684.712 959.256 686.32C958.824 686.68 958.32 687.328 958.032 687.808C953.784 685.888 950.112 681.976 948.072 677.416L949.584 676.912ZM938.352 681.16L939.312 680.176C940.584 680.896 942.072 682 942.768 682.864L941.76 683.968C941.04 683.128 939.6 681.928 938.352 681.16ZM954.408 677.056L955.776 678.016C954.528 679.192 952.872 680.488 951.624 681.328L950.52 680.464C951.744 679.576 953.448 678.112 954.408 677.056ZM957.096 679.888L958.44 680.848C957.168 682.048 955.44 683.344 954.12 684.16L953.016 683.296C954.312 682.432 956.088 680.968 957.096 679.888ZM943.104 688.552V691.72H952.824V688.552H943.104ZM941.328 687.064H954.672V693.208H941.328V687.064ZM942.72 693.592L944.376 693.136C945.048 694.168 945.672 695.584 945.912 696.52L944.208 697.048C943.968 696.112 943.368 694.648 942.72 693.592ZM951.648 693.064L953.4 693.544C952.752 694.816 952.032 696.136 951.432 697.072L949.896 696.616C950.496 695.68 951.264 694.12 951.648 693.064ZM961.584 685.936H982.56V687.544H961.584V685.936ZM971.04 686.752H972.888V696.976C972.888 698.008 972.624 698.464 971.856 698.704C971.112 698.968 969.912 698.992 968.04 698.968C967.92 698.512 967.656 697.864 967.416 697.384C968.808 697.456 970.152 697.456 970.56 697.432C970.944 697.408 971.04 697.288 971.04 696.952V686.752ZM972.672 687.784C974.4 691.912 978.072 695.128 982.872 696.424C982.464 696.784 981.936 697.48 981.672 697.984C976.776 696.424 973.176 692.92 971.208 688.216L972.672 687.784ZM979.416 688.12L980.952 689.248C979.344 690.64 977.232 692.152 975.624 693.136L974.376 692.128C975.984 691.12 978.144 689.416 979.416 688.12ZM963.216 689.392L964.416 688.288C965.928 689.128 967.896 690.376 968.856 691.312L967.584 692.56C966.672 691.624 964.776 690.28 963.216 689.392ZM961.632 695.704C964.08 694.792 968.016 693.208 971.664 691.696L972.024 693.232C968.736 694.672 965.208 696.208 962.592 697.312L961.632 695.704ZM963.936 682.072H978.312V683.728H963.936V682.072ZM977.784 678.184H977.976L978.312 678.112L979.728 678.208C979.656 680.776 979.44 684.256 979.2 686.872L977.352 686.776C977.568 684.112 977.736 680.344 977.784 678.424V678.184ZM963.216 678.184H978.288V679.864H963.216V678.184Z" fill="white"/>
<path d="M832.316 1046.27C832.316 1045.34 832.544 1044.49 832.998 1043.72C833.453 1042.96 834.064 1042.35 834.831 1041.89C835.598 1041.44 836.447 1041.21 837.379 1041.21C838.186 1041.21 838.93 1041.38 839.612 1041.73C840.299 1042.08 840.868 1042.55 841.316 1043.15C841.765 1043.75 842.044 1044.43 842.152 1045.18H840.089C839.975 1044.6 839.66 1044.12 839.143 1043.75C838.626 1043.38 838.038 1043.19 837.379 1043.19C836.811 1043.19 836.294 1043.33 835.828 1043.61C835.362 1043.88 834.99 1044.26 834.711 1044.72C834.433 1045.19 834.294 1045.7 834.294 1046.27C834.294 1046.84 834.433 1047.36 834.711 1047.82C834.99 1048.29 835.362 1048.66 835.828 1048.94C836.294 1049.22 836.811 1049.36 837.379 1049.36C838.038 1049.36 838.595 1049.17 839.049 1048.8C839.51 1048.43 839.799 1047.95 839.919 1047.36H841.981C841.873 1048.12 841.609 1048.8 841.189 1049.4C840.768 1050 840.228 1050.47 839.569 1050.82C838.916 1051.16 838.186 1051.34 837.379 1051.34C836.447 1051.34 835.598 1051.11 834.831 1050.65C834.064 1050.2 833.453 1049.59 832.998 1048.82C832.544 1048.05 832.316 1047.2 832.316 1046.27ZM837.294 1055.27C836.055 1055.27 834.89 1055.04 833.799 1054.57C832.714 1054.11 831.757 1053.46 830.927 1052.64C830.103 1051.81 829.456 1050.85 828.984 1049.77C828.518 1048.68 828.288 1047.52 828.294 1046.27C828.299 1045.03 828.535 1043.86 829.001 1042.78C829.473 1041.69 830.12 1040.74 830.944 1039.91C831.768 1039.09 832.723 1038.44 833.808 1037.97C834.893 1037.51 836.055 1037.27 837.294 1037.27C838.538 1037.27 839.703 1037.51 840.788 1037.97C841.879 1038.44 842.833 1039.09 843.652 1039.91C844.475 1040.74 845.12 1041.69 845.586 1042.78C846.052 1043.86 846.288 1045.03 846.294 1046.27C846.299 1047.52 846.069 1048.68 845.603 1049.77C845.137 1050.85 844.493 1051.81 843.669 1052.64C842.845 1053.46 841.887 1054.11 840.797 1054.57C839.706 1055.04 838.538 1055.27 837.294 1055.27ZM837.294 1053.3C838.265 1053.3 839.177 1053.11 840.029 1052.75C840.882 1052.39 841.629 1051.88 842.271 1051.24C842.913 1050.6 843.416 1049.86 843.779 1049.01C844.143 1048.16 844.322 1047.25 844.316 1046.28C844.311 1045.31 844.126 1044.4 843.762 1043.55C843.399 1042.69 842.896 1041.95 842.254 1041.3C841.612 1040.66 840.868 1040.16 840.021 1039.8C839.174 1039.43 838.265 1039.25 837.294 1039.25C836.328 1039.25 835.422 1039.43 834.575 1039.8C833.728 1040.16 832.984 1040.66 832.342 1041.31C831.7 1041.95 831.194 1042.7 830.825 1043.55C830.461 1044.4 830.277 1045.31 830.271 1046.28C830.265 1047.24 830.444 1048.15 830.808 1049C831.172 1049.85 831.674 1050.59 832.316 1051.23C832.964 1051.87 833.711 1052.38 834.558 1052.75C835.41 1053.11 836.322 1053.3 837.294 1053.3ZM850.084 1055V1053.47L855.846 1047.16C856.522 1046.42 857.078 1045.78 857.516 1045.23C857.953 1044.68 858.277 1044.16 858.488 1043.68C858.703 1043.19 858.811 1042.68 858.811 1042.15C858.811 1041.53 858.664 1041 858.368 1040.55C858.078 1040.11 857.681 1039.76 857.175 1039.51C856.669 1039.27 856.101 1039.15 855.471 1039.15C854.8 1039.15 854.215 1039.29 853.715 1039.57C853.221 1039.84 852.837 1040.22 852.564 1040.72C852.297 1041.21 852.164 1041.79 852.164 1042.45H850.152C850.152 1041.43 850.388 1040.53 850.86 1039.76C851.331 1038.99 851.973 1038.39 852.786 1037.95C853.604 1037.52 854.522 1037.31 855.539 1037.31C856.561 1037.31 857.468 1037.52 858.257 1037.95C859.047 1038.39 859.667 1038.97 860.115 1039.7C860.564 1040.43 860.789 1041.25 860.789 1042.15C860.789 1042.79 860.672 1043.42 860.439 1044.03C860.212 1044.64 859.814 1045.32 859.246 1046.07C858.684 1046.81 857.902 1047.72 856.902 1048.8L852.982 1052.99V1053.12H861.096V1055H850.084ZM870.309 1055.24C869.025 1055.24 867.931 1054.89 867.027 1054.19C866.124 1053.49 865.434 1052.47 864.956 1051.13C864.479 1049.79 864.24 1048.17 864.24 1046.27C864.24 1044.39 864.479 1042.78 864.956 1041.44C865.439 1040.1 866.132 1039.08 867.036 1038.37C867.945 1037.66 869.036 1037.31 870.309 1037.31C871.581 1037.31 872.669 1037.66 873.573 1038.37C874.482 1039.08 875.175 1040.1 875.652 1041.44C876.135 1042.78 876.377 1044.39 876.377 1046.27C876.377 1048.17 876.138 1049.79 875.661 1051.13C875.184 1052.47 874.493 1053.49 873.59 1054.19C872.686 1054.89 871.593 1055.24 870.309 1055.24ZM870.309 1053.36C871.581 1053.36 872.57 1052.75 873.275 1051.52C873.979 1050.3 874.331 1048.55 874.331 1046.27C874.331 1044.76 874.169 1043.47 873.846 1042.41C873.527 1041.35 873.067 1040.54 872.465 1039.98C871.868 1039.43 871.15 1039.15 870.309 1039.15C869.047 1039.15 868.061 1039.77 867.351 1041.01C866.641 1042.25 866.286 1044.01 866.286 1046.27C866.286 1047.78 866.445 1049.07 866.763 1050.12C867.081 1051.18 867.539 1051.99 868.135 1052.54C868.738 1053.09 869.462 1053.36 870.309 1053.36ZM879.615 1055V1053.47L885.377 1047.16C886.053 1046.42 886.61 1045.78 887.047 1045.23C887.485 1044.68 887.809 1044.16 888.019 1043.68C888.235 1043.19 888.343 1042.68 888.343 1042.15C888.343 1041.53 888.195 1041 887.9 1040.55C887.61 1040.11 887.212 1039.76 886.706 1039.51C886.201 1039.27 885.632 1039.15 885.002 1039.15C884.331 1039.15 883.746 1039.29 883.246 1039.57C882.752 1039.84 882.368 1040.22 882.096 1040.72C881.828 1041.21 881.695 1041.79 881.695 1042.45H879.684C879.684 1041.43 879.919 1040.53 880.391 1039.76C880.863 1038.99 881.505 1038.39 882.317 1037.95C883.135 1037.52 884.053 1037.31 885.07 1037.31C886.093 1037.31 886.999 1037.52 887.789 1037.95C888.578 1038.39 889.198 1038.97 889.647 1039.7C890.096 1040.43 890.32 1041.25 890.32 1042.15C890.32 1042.79 890.203 1043.42 889.971 1044.03C889.743 1044.64 889.346 1045.32 888.777 1046.07C888.215 1046.81 887.434 1047.72 886.434 1048.8L882.513 1052.99V1053.12H890.627V1055H879.615ZM893.363 1051.42V1049.68L901.033 1037.55H902.294V1040.24H901.442L895.647 1049.41V1049.55H905.976V1051.42H893.363ZM901.578 1055V1050.89V1050.08V1037.55H903.59V1055H901.578ZM925.772 1041.91C925.67 1041.05 925.255 1040.38 924.528 1039.9C923.801 1039.42 922.909 1039.18 921.852 1039.18C921.079 1039.18 920.403 1039.31 919.824 1039.56C919.25 1039.81 918.801 1040.15 918.477 1040.59C918.159 1041.03 918 1041.52 918 1042.08C918 1042.55 918.11 1042.95 918.332 1043.28C918.559 1043.61 918.849 1043.89 919.201 1044.11C919.554 1044.32 919.923 1044.5 920.309 1044.64C920.696 1044.78 921.051 1044.89 921.375 1044.98L923.147 1045.45C923.602 1045.57 924.108 1045.74 924.664 1045.95C925.227 1046.16 925.764 1046.45 926.275 1046.81C926.792 1047.17 927.218 1047.63 927.554 1048.19C927.889 1048.75 928.056 1049.44 928.056 1050.26C928.056 1051.2 927.809 1052.06 927.315 1052.82C926.826 1053.58 926.11 1054.18 925.167 1054.63C924.23 1055.08 923.091 1055.31 921.75 1055.31C920.5 1055.31 919.417 1055.11 918.502 1054.7C917.593 1054.3 916.877 1053.74 916.355 1053.01C915.838 1052.29 915.545 1051.45 915.477 1050.5H917.659C917.716 1051.16 917.937 1051.7 918.324 1052.14C918.716 1052.56 919.21 1052.88 919.806 1053.09C920.409 1053.3 921.056 1053.4 921.75 1053.4C922.556 1053.4 923.281 1053.27 923.923 1053.01C924.565 1052.74 925.074 1052.37 925.449 1051.9C925.824 1051.42 926.011 1050.86 926.011 1050.23C926.011 1049.65 925.849 1049.18 925.525 1048.81C925.201 1048.45 924.775 1048.15 924.247 1047.93C923.718 1047.7 923.147 1047.5 922.534 1047.33L920.386 1046.72C919.022 1046.32 917.943 1045.76 917.147 1045.04C916.352 1044.31 915.954 1043.36 915.954 1042.18C915.954 1041.2 916.218 1040.35 916.747 1039.62C917.281 1038.89 917.997 1038.32 918.895 1037.92C919.798 1037.51 920.806 1037.31 921.92 1037.31C923.045 1037.31 924.045 1037.51 924.92 1037.91C925.795 1038.31 926.488 1038.86 927 1039.55C927.517 1040.24 927.789 1041.03 927.818 1041.91H925.772ZM941.077 1041.91C940.975 1041.05 940.56 1040.38 939.833 1039.9C939.105 1039.42 938.213 1039.18 937.157 1039.18C936.384 1039.18 935.708 1039.31 935.128 1039.56C934.554 1039.81 934.105 1040.15 933.782 1040.59C933.463 1041.03 933.304 1041.52 933.304 1042.08C933.304 1042.55 933.415 1042.95 933.637 1043.28C933.864 1043.61 934.154 1043.89 934.506 1044.11C934.858 1044.32 935.228 1044.5 935.614 1044.64C936 1044.78 936.355 1044.89 936.679 1044.98L938.452 1045.45C938.907 1045.57 939.412 1045.74 939.969 1045.95C940.532 1046.16 941.069 1046.45 941.58 1046.81C942.097 1047.17 942.523 1047.63 942.858 1048.19C943.194 1048.75 943.361 1049.44 943.361 1050.26C943.361 1051.2 943.114 1052.06 942.62 1052.82C942.131 1053.58 941.415 1054.18 940.472 1054.63C939.534 1055.08 938.395 1055.31 937.054 1055.31C935.804 1055.31 934.722 1055.11 933.807 1054.7C932.898 1054.3 932.182 1053.74 931.659 1053.01C931.142 1052.29 930.85 1051.45 930.782 1050.5H932.963C933.02 1051.16 933.242 1051.7 933.628 1052.14C934.02 1052.56 934.515 1052.88 935.111 1053.09C935.713 1053.3 936.361 1053.4 937.054 1053.4C937.861 1053.4 938.586 1053.27 939.228 1053.01C939.87 1052.74 940.378 1052.37 940.753 1051.9C941.128 1051.42 941.316 1050.86 941.316 1050.23C941.316 1049.65 941.154 1049.18 940.83 1048.81C940.506 1048.45 940.08 1048.15 939.551 1047.93C939.023 1047.7 938.452 1047.5 937.838 1047.33L935.691 1046.72C934.327 1046.32 933.248 1045.76 932.452 1045.04C931.657 1044.31 931.259 1043.36 931.259 1042.18C931.259 1041.2 931.523 1040.35 932.051 1039.62C932.586 1038.89 933.301 1038.32 934.199 1037.92C935.103 1037.51 936.111 1037.31 937.225 1037.31C938.35 1037.31 939.35 1037.51 940.225 1037.91C941.1 1038.31 941.793 1038.86 942.304 1039.55C942.821 1040.24 943.094 1041.03 943.123 1041.91H941.077ZM946.836 1055V1037.55H957.37V1039.42H948.95V1045.32H956.825V1047.19H948.95V1053.12H957.507V1055H946.836ZM973.316 1055H967.93V1037.55H973.555C975.248 1037.55 976.697 1037.89 977.902 1038.59C979.106 1039.29 980.029 1040.28 980.672 1041.59C981.314 1042.88 981.635 1044.43 981.635 1046.24C981.635 1048.06 981.311 1049.62 980.663 1050.93C980.015 1052.24 979.072 1053.25 977.833 1053.95C976.595 1054.65 975.089 1055 973.316 1055ZM970.044 1053.12H973.18C974.623 1053.12 975.819 1052.85 976.768 1052.29C977.717 1051.73 978.424 1050.94 978.89 1049.91C979.356 1048.88 979.589 1047.66 979.589 1046.24C979.589 1044.83 979.359 1043.62 978.899 1042.6C978.439 1041.58 977.751 1040.79 976.836 1040.25C975.922 1039.7 974.782 1039.42 973.419 1039.42H970.044V1053.12ZM984.907 1055V1041.91H986.919V1055H984.907ZM985.93 1039.73C985.538 1039.73 985.2 1039.59 984.916 1039.33C984.637 1039.06 984.498 1038.74 984.498 1038.36C984.498 1037.99 984.637 1037.67 984.916 1037.4C985.2 1037.13 985.538 1037 985.93 1037C986.322 1037 986.657 1037.13 986.936 1037.4C987.22 1037.67 987.362 1037.99 987.362 1038.36C987.362 1038.74 987.22 1039.06 986.936 1039.33C986.657 1039.59 986.322 1039.73 985.93 1039.73ZM995.887 1060.18C994.915 1060.18 994.08 1060.06 993.381 1059.81C992.682 1059.56 992.1 1059.24 991.634 1058.84C991.174 1058.44 990.807 1058.01 990.534 1057.56L992.137 1056.43C992.319 1056.67 992.549 1056.94 992.827 1057.25C993.105 1057.56 993.486 1057.83 993.969 1058.06C994.458 1058.29 995.097 1058.41 995.887 1058.41C996.944 1058.41 997.816 1058.15 998.503 1057.64C999.191 1057.13 999.534 1056.33 999.534 1055.24V1052.58H999.364C999.216 1052.82 999.006 1053.11 998.733 1053.47C998.466 1053.81 998.08 1054.12 997.574 1054.39C997.074 1054.66 996.398 1054.8 995.546 1054.8C994.489 1054.8 993.54 1054.55 992.699 1054.05C991.864 1053.55 991.202 1052.82 990.713 1051.86C990.23 1050.91 989.989 1049.75 989.989 1048.39C989.989 1047.05 990.225 1045.88 990.696 1044.88C991.168 1043.88 991.824 1043.11 992.665 1042.57C993.506 1042.01 994.478 1041.74 995.58 1041.74C996.432 1041.74 997.108 1041.88 997.608 1042.16C998.114 1042.44 998.5 1042.76 998.767 1043.12C999.04 1043.47 999.25 1043.76 999.398 1043.99H999.603V1041.91H1001.55V1055.38C1001.55 1056.5 1001.29 1057.41 1000.78 1058.12C1000.27 1058.83 999.591 1059.35 998.733 1059.68C997.881 1060.01 996.932 1060.18 995.887 1060.18ZM995.819 1052.99C996.625 1052.99 997.307 1052.8 997.864 1052.43C998.421 1052.07 998.844 1051.53 999.134 1050.84C999.424 1050.15 999.569 1049.32 999.569 1048.35C999.569 1047.41 999.426 1046.58 999.142 1045.86C998.858 1045.13 998.438 1044.57 997.881 1044.16C997.324 1043.75 996.637 1043.55 995.819 1043.55C994.966 1043.55 994.256 1043.76 993.688 1044.19C993.125 1044.62 992.702 1045.2 992.418 1045.93C992.14 1046.66 992 1047.47 992 1048.35C992 1049.26 992.142 1050.07 992.426 1050.76C992.716 1051.46 993.142 1052 993.705 1052.4C994.273 1052.79 994.978 1052.99 995.819 1052.99ZM1005.23 1055V1041.91H1007.24V1055H1005.23ZM1006.25 1039.73C1005.86 1039.73 1005.52 1039.59 1005.24 1039.33C1004.96 1039.06 1004.82 1038.74 1004.82 1038.36C1004.82 1037.99 1004.96 1037.67 1005.24 1037.4C1005.52 1037.13 1005.86 1037 1006.25 1037C1006.64 1037 1006.98 1037.13 1007.26 1037.4C1007.54 1037.67 1007.68 1037.99 1007.68 1038.36C1007.68 1038.74 1007.54 1039.06 1007.26 1039.33C1006.98 1039.59 1006.64 1039.73 1006.25 1039.73ZM1016.62 1041.91V1043.61H1009.83V1041.91H1016.62ZM1011.81 1038.77H1013.82V1051.25C1013.82 1051.82 1013.9 1052.24 1014.07 1052.53C1014.24 1052.81 1014.45 1052.99 1014.72 1053.09C1014.98 1053.18 1015.26 1053.23 1015.56 1053.23C1015.78 1053.23 1015.96 1053.22 1016.1 1053.19C1016.25 1053.16 1016.36 1053.14 1016.45 1053.12L1016.85 1054.93C1016.72 1054.98 1016.53 1055.03 1016.28 1055.09C1016.04 1055.14 1015.73 1055.17 1015.35 1055.17C1014.79 1055.17 1014.23 1055.05 1013.68 1054.8C1013.14 1054.56 1012.7 1054.19 1012.34 1053.69C1011.99 1053.19 1011.81 1052.56 1011.81 1051.8V1038.77ZM1023.49 1055.31C1022.66 1055.31 1021.91 1055.15 1021.24 1054.84C1020.56 1054.52 1020.02 1054.06 1019.62 1053.47C1019.23 1052.86 1019.03 1052.14 1019.03 1051.28C1019.03 1050.53 1019.18 1049.93 1019.47 1049.46C1019.77 1048.99 1020.16 1048.62 1020.66 1048.35C1021.15 1048.09 1021.7 1047.89 1022.29 1047.76C1022.89 1047.62 1023.5 1047.51 1024.11 1047.43C1024.9 1047.33 1025.55 1047.25 1026.04 1047.2C1026.54 1047.14 1026.91 1047.05 1027.13 1046.92C1027.37 1046.79 1027.48 1046.56 1027.48 1046.24V1046.17C1027.48 1045.33 1027.25 1044.68 1026.79 1044.21C1026.34 1043.74 1025.65 1043.51 1024.72 1043.51C1023.76 1043.51 1023.01 1043.72 1022.46 1044.14C1021.92 1044.56 1021.53 1045.01 1021.31 1045.49L1019.4 1044.81C1019.74 1044.01 1020.2 1043.39 1020.77 1042.95C1021.34 1042.5 1021.97 1042.19 1022.64 1042.01C1023.32 1041.83 1023.99 1041.74 1024.65 1041.74C1025.07 1041.74 1025.56 1041.79 1026.1 1041.89C1026.65 1041.99 1027.18 1042.19 1027.7 1042.5C1028.21 1042.8 1028.64 1043.27 1028.98 1043.89C1029.32 1044.51 1029.49 1045.34 1029.49 1046.38V1055H1027.48V1053.23H1027.38C1027.24 1053.51 1027.02 1053.82 1026.7 1054.14C1026.38 1054.46 1025.96 1054.74 1025.43 1054.97C1024.9 1055.19 1024.26 1055.31 1023.49 1055.31ZM1023.8 1053.5C1024.6 1053.5 1025.27 1053.34 1025.81 1053.03C1026.36 1052.72 1026.78 1052.32 1027.06 1051.82C1027.34 1051.33 1027.48 1050.81 1027.48 1050.26V1048.42C1027.4 1048.52 1027.21 1048.62 1026.92 1048.7C1026.64 1048.78 1026.31 1048.85 1025.93 1048.91C1025.56 1048.97 1025.2 1049.02 1024.85 1049.07C1024.5 1049.11 1024.22 1049.14 1024.01 1049.17C1023.48 1049.24 1022.99 1049.35 1022.54 1049.5C1022.09 1049.65 1021.73 1049.87 1021.45 1050.18C1021.18 1050.47 1021.04 1050.87 1021.04 1051.39C1021.04 1052.09 1021.3 1052.61 1021.81 1052.97C1022.34 1053.32 1023 1053.5 1023.8 1053.5ZM1035.18 1037.55V1055H1033.17V1037.55H1035.18ZM1045.88 1037.55H1048.41L1054.34 1052.03H1054.54L1060.47 1037.55H1063V1055H1061.02V1041.74H1060.85L1055.39 1055H1053.49L1048.03 1041.74H1047.86V1055H1045.88V1037.55ZM1070.81 1055.31C1069.98 1055.31 1069.23 1055.15 1068.56 1054.84C1067.88 1054.52 1067.34 1054.06 1066.94 1053.47C1066.55 1052.86 1066.35 1052.14 1066.35 1051.28C1066.35 1050.53 1066.5 1049.93 1066.79 1049.46C1067.09 1048.99 1067.48 1048.62 1067.98 1048.35C1068.47 1048.09 1069.02 1047.89 1069.61 1047.76C1070.21 1047.62 1070.82 1047.51 1071.43 1047.43C1072.22 1047.33 1072.87 1047.25 1073.36 1047.2C1073.86 1047.14 1074.23 1047.05 1074.45 1046.92C1074.69 1046.79 1074.8 1046.56 1074.8 1046.24V1046.17C1074.8 1045.33 1074.57 1044.68 1074.11 1044.21C1073.66 1043.74 1072.97 1043.51 1072.04 1043.51C1071.08 1043.51 1070.33 1043.72 1069.78 1044.14C1069.24 1044.56 1068.85 1045.01 1068.63 1045.49L1066.72 1044.81C1067.06 1044.01 1067.52 1043.39 1068.09 1042.95C1068.66 1042.5 1069.29 1042.19 1069.96 1042.01C1070.64 1041.83 1071.31 1041.74 1071.97 1041.74C1072.39 1041.74 1072.88 1041.79 1073.42 1041.89C1073.97 1041.99 1074.5 1042.19 1075.02 1042.5C1075.53 1042.8 1075.96 1043.27 1076.3 1043.89C1076.64 1044.51 1076.81 1045.34 1076.81 1046.38V1055H1074.8V1053.23H1074.7C1074.56 1053.51 1074.34 1053.82 1074.02 1054.14C1073.7 1054.46 1073.28 1054.74 1072.75 1054.97C1072.22 1055.19 1071.58 1055.31 1070.81 1055.31ZM1071.12 1053.5C1071.92 1053.5 1072.59 1053.34 1073.13 1053.03C1073.68 1052.72 1074.1 1052.32 1074.38 1051.82C1074.66 1051.33 1074.8 1050.81 1074.8 1050.26V1048.42C1074.72 1048.52 1074.53 1048.62 1074.24 1048.7C1073.96 1048.78 1073.63 1048.85 1073.25 1048.91C1072.88 1048.97 1072.52 1049.02 1072.17 1049.07C1071.82 1049.11 1071.54 1049.14 1071.33 1049.17C1070.8 1049.24 1070.31 1049.35 1069.86 1049.5C1069.41 1049.65 1069.05 1049.87 1068.77 1050.18C1068.5 1050.47 1068.36 1050.87 1068.36 1051.39C1068.36 1052.09 1068.62 1052.61 1069.14 1052.97C1069.66 1053.32 1070.32 1053.5 1071.12 1053.5ZM1082.5 1047.12V1055H1080.49V1041.91H1082.43V1043.95H1082.6C1082.91 1043.29 1083.37 1042.76 1084 1042.35C1084.62 1041.94 1085.43 1041.74 1086.42 1041.74C1087.3 1041.74 1088.08 1041.92 1088.74 1042.28C1089.41 1042.64 1089.93 1043.19 1090.3 1043.92C1090.66 1044.65 1090.85 1045.57 1090.85 1046.68V1055H1088.84V1046.82C1088.84 1045.79 1088.57 1044.99 1088.04 1044.41C1087.5 1043.84 1086.77 1043.55 1085.84 1043.55C1085.2 1043.55 1084.62 1043.68 1084.12 1043.96C1083.62 1044.24 1083.22 1044.65 1082.93 1045.18C1082.64 1045.72 1082.5 1046.36 1082.5 1047.12Z" fill="white"/>
<path d="M769.856 230.072H802.24V236.216H769.856V230.072ZM770.624 207.48H802.048V213.496H770.624V207.48ZM781.376 225.464L788.48 227C785.344 233.592 781.184 241.4 778.112 246.52L771.392 244.472C774.4 239.544 778.624 231.544 781.376 225.464ZM790.464 234.36L797.504 234.936C795.2 248.376 788.48 253.752 773.248 256.824C772.8 254.712 771.392 252.024 770.112 250.488C782.848 248.888 788.416 244.856 790.464 234.36ZM795.008 197.432L801.472 199.992C799.36 202.872 797.312 205.816 795.648 207.8L790.72 205.56C792.192 203.32 793.984 199.864 795.008 197.432ZM782.784 196.6H789.824V226.36H782.784V196.6ZM772.16 199.992L777.664 197.688C779.392 200.12 780.992 203.384 781.568 205.688L775.68 208.248C775.232 206.008 773.76 202.616 772.16 199.992ZM782.976 210.488L787.968 213.496C784.768 218.552 778.624 224.12 773.248 227.128C772.352 225.464 770.688 222.904 769.28 221.496C774.464 219.384 780.224 214.84 782.976 210.488ZM789.184 212.344C791.488 213.432 798.784 217.72 800.576 218.936L796.48 224.248C794.112 221.88 788.416 217.336 785.6 215.352L789.184 212.344ZM806.464 208.248H829.952V215.352H806.464V208.248ZM807.168 196.6L814.912 197.688C812.928 210.936 809.088 223.224 803.2 231.032C801.984 229.624 798.848 226.872 797.12 225.592C802.496 219.064 805.632 208.056 807.168 196.6ZM818.752 212.6L826.624 213.304C823.872 235.192 817.28 248.888 801.088 257.016C800.32 255.16 798.08 251.64 796.672 249.976C811.264 243.576 816.832 231.544 818.752 212.6ZM810.816 213.944C813.376 230.136 819.008 243.96 830.784 249.976C828.992 251.512 826.56 254.584 825.408 256.696C812.544 249.016 806.976 234.168 803.84 215.032L810.816 213.944ZM777.024 244.536L781.12 239.288C788.672 242.168 796.672 246.648 801.024 250.104L795.712 255.544C791.616 251.96 784.192 247.48 777.024 244.536ZM846.976 215.16H875.584V222.136H846.976V215.16ZM836.032 231.032H892.096V238.328H836.032V231.032ZM859.776 226.936H868.032V247.992C868.032 252.088 867.072 254.2 863.936 255.352C860.864 256.504 856.768 256.632 851.456 256.632C850.944 254.328 849.408 250.872 848.128 248.76C852.032 248.952 856.896 249.016 858.176 248.952C859.456 248.888 859.776 248.632 859.776 247.736V226.936ZM873.216 215.16H875.264L876.992 214.776L881.92 218.616C877.76 223.352 871.808 228.664 865.6 231.864C864.704 230.584 862.656 228.6 861.568 227.576C866.112 224.888 870.976 219.96 873.216 216.632V215.16ZM859.776 196.664H867.968V208.312H859.776V196.664ZM836.288 202.808H891.584V219.448H883.648V210.04H843.84V219.448H836.288V202.808ZM922.624 198.2H931.392C930.816 208.952 929.984 240.184 903.808 256.248C902.464 254.264 899.968 251.896 897.344 250.104C923.072 235.832 922.176 206.584 922.624 198.2ZM931.136 199.864C931.328 205.432 932.672 237.368 958.912 249.656C956.48 251.512 954.176 254.072 953.024 256.184C925.44 242.488 924.224 207.224 923.712 200.632L931.136 199.864ZM984.832 230.584H1018.62V237.496H984.832V230.584ZM981.12 247.992H1021.89V254.968H981.12V247.992ZM982.144 202.168H1021.44V214.2H1014.46V208.568H988.736V214.392H982.144V202.168ZM997.888 196.6H1005.38V206.456H997.888V196.6ZM997.632 234.296H1005.25V251.32H997.632V234.296ZM1003.2 208.056H1010.24V219.064C1010.24 220.664 1010.43 220.792 1011.52 220.792C1011.97 220.792 1013.89 220.792 1014.46 220.792C1015.55 220.792 1015.81 220.152 1016 215.8C1017.28 216.824 1020.16 217.912 1022.02 218.36C1021.31 225.144 1019.58 227 1015.3 227C1014.08 227 1011.46 227 1010.3 227C1004.42 227 1003.2 225.016 1003.2 219.128V208.056ZM992.576 208.248H999.488C999.104 219.192 997.248 225.464 985.28 228.6C984.768 226.936 983.04 224.44 981.696 223.096C991.36 220.856 992.32 216.696 992.576 208.248ZM961.28 228.856C966.4 227.384 973.952 224.824 981.184 222.328L982.528 229.112C975.936 231.608 968.832 234.168 963.136 236.152L961.28 228.856ZM962.304 208.824H981.44V215.864H962.304V208.824ZM969.088 196.728H976.128V248.632C976.128 252.216 975.488 254.2 973.504 255.352C971.584 256.568 968.832 256.824 964.672 256.824C964.48 254.904 963.584 251.768 962.688 249.656C964.992 249.784 967.232 249.784 968 249.72C968.768 249.72 969.088 249.528 969.088 248.632V196.728ZM1065.09 201.976H1072.26V238.136H1065.09V201.976ZM1076.61 197.752H1084.03V247.672C1084.03 251.832 1083.2 253.88 1080.83 255.224C1078.46 256.44 1074.75 256.696 1069.82 256.696C1069.5 254.52 1068.42 251.128 1067.46 248.888C1070.78 249.016 1074.11 249.016 1075.26 249.016C1076.29 249.016 1076.61 248.696 1076.61 247.672V197.752ZM1040.9 197.048H1048.19V256.696H1040.9V197.048ZM1053.82 228.472H1060.74V244.856C1060.74 247.864 1060.35 249.656 1058.43 250.808C1056.58 251.896 1054.14 252.024 1050.94 251.96C1050.75 250.04 1049.92 247.288 1049.09 245.432C1050.82 245.496 1052.48 245.496 1053.06 245.496C1053.63 245.496 1053.82 245.368 1053.82 244.728V228.472ZM1028.8 228.472H1056.58V235.32H1035.65V251.64H1028.8V228.472ZM1026.3 216.952H1062.27V223.864H1026.3V216.952ZM1033.02 205.176H1059.78V212.152H1031.62L1033.02 205.176ZM1031.23 197.88L1038.27 199.288C1036.86 206.008 1034.43 212.984 1032 217.4C1030.46 216.504 1027.14 215.224 1025.34 214.584C1027.97 210.424 1030.08 203.96 1031.23 197.88ZM1101.89 205.112V211.832H1109.63V205.112H1101.89ZM1094.91 199.16H1116.99V217.784H1094.91V199.16ZM1129.92 205.112V211.832H1137.66V205.112H1129.92ZM1122.94 199.16H1145.02V217.784H1122.94V199.16ZM1090.88 221.368H1149.18V228.088H1090.88V221.368ZM1099.58 248.504H1113.73V254.84H1099.58V248.504ZM1125.82 248.504H1139.97V254.84H1125.82V248.504ZM1129.54 223.096C1133.57 228.984 1142.08 233.848 1151.36 236.088C1149.76 237.496 1147.65 240.376 1146.56 242.168C1136.45 239.288 1127.81 233.4 1122.43 225.72L1129.54 223.096ZM1096 235.192H1117.31V256.824H1110.34V241.528H1102.66V256.888H1096V235.192ZM1122.3 235.192H1143.74V256.824H1136.7V241.528H1129.02V256.888H1122.3V235.192ZM1115.58 215.096L1123.01 217.592C1117.44 229.432 1106.82 237.304 1093.31 242.04C1092.42 240.376 1090.18 237.432 1088.7 236.088C1101.25 232.056 1111.1 224.824 1115.58 215.096Z" fill="white"/>
</svg>
