<svg width="1920" height="1080" viewBox="0 0 1920 1080" fill="none" xmlns="http://www.w3.org/2000/svg">
<g clip-path="url(#clip0_18_579)">
<rect width="1920" height="1080" fill="#F5F5F5"/>
<path d="M33.0137 1047.73C33.0137 1046.95 33.2031 1046.24 33.5819 1045.6C33.9606 1044.96 34.4696 1044.46 35.1088 1044.08C35.748 1043.7 36.4559 1043.51 37.2324 1043.51C37.9048 1043.51 38.525 1043.65 39.0932 1043.94C39.6661 1044.23 40.1396 1044.63 40.5137 1045.13C40.8877 1045.62 41.1197 1046.19 41.2097 1046.82H39.4909C39.3962 1046.33 39.1335 1045.93 38.7026 1045.62C38.2717 1045.31 37.7817 1045.16 37.2324 1045.16C36.7589 1045.16 36.3281 1045.27 35.9398 1045.5C35.5516 1045.74 35.2414 1046.05 35.0094 1046.43C34.7774 1046.82 34.6614 1047.25 34.6614 1047.73C34.6614 1048.2 34.7774 1048.63 35.0094 1049.02C35.2414 1049.41 35.5516 1049.72 35.9398 1049.95C36.3281 1050.18 36.7589 1050.3 37.2324 1050.3C37.7817 1050.3 38.2457 1050.14 38.6245 1049.84C39.008 1049.52 39.2495 1049.12 39.3489 1048.64H41.0676C40.9777 1049.27 40.7575 1049.83 40.4071 1050.33C40.0568 1050.83 39.6069 1051.22 39.0577 1051.51C38.5132 1051.8 37.9048 1051.95 37.2324 1051.95C36.4559 1051.95 35.748 1051.76 35.1088 1051.38C34.4696 1051 33.9606 1050.49 33.5819 1049.85C33.2031 1049.21 33.0137 1048.5 33.0137 1047.73ZM37.1614 1055.23C36.1292 1055.23 35.1586 1055.03 34.2495 1054.64C33.3451 1054.26 32.5473 1053.72 31.856 1053.03C31.1694 1052.34 30.6297 1051.54 30.2367 1050.64C29.8484 1049.73 29.6567 1048.76 29.6614 1047.73C29.6661 1046.69 29.8626 1045.72 30.2509 1044.82C30.6439 1043.91 31.1837 1043.12 31.8702 1042.43C32.5568 1041.74 33.3522 1041.2 34.2566 1040.81C35.1609 1040.42 36.1292 1040.23 37.1614 1040.23C38.1983 1040.23 39.169 1040.42 40.0733 1040.81C40.9824 1041.2 41.7779 1041.74 42.4597 1042.43C43.1462 1043.12 43.6837 1043.91 44.0719 1044.82C44.4602 1045.72 44.6567 1046.69 44.6614 1047.73C44.6661 1048.76 44.4744 1049.73 44.0861 1050.64C43.6979 1051.54 43.1605 1052.34 42.4739 1053.03C41.7873 1053.72 40.9895 1054.26 40.0804 1054.64C39.1713 1055.03 38.1983 1055.23 37.1614 1055.23ZM37.1614 1053.58C37.9711 1053.58 38.731 1053.43 39.4412 1053.12C40.1515 1052.82 40.7741 1052.4 41.3091 1051.87C41.8442 1051.33 42.2632 1050.71 42.5662 1050.01C42.8693 1049.3 43.0184 1048.54 43.0137 1047.73C43.0089 1046.92 42.8551 1046.16 42.552 1045.45C42.249 1044.74 41.83 1044.12 41.2949 1043.59C40.7599 1043.05 40.1396 1042.63 39.4341 1042.33C38.7286 1042.03 37.9711 1041.88 37.1614 1041.88C36.3565 1041.88 35.6013 1042.03 34.8958 1042.33C34.1903 1042.63 33.57 1043.05 33.035 1043.59C32.4999 1044.13 32.0785 1044.75 31.7708 1045.46C31.4677 1046.17 31.3139 1046.92 31.3091 1047.73C31.3044 1048.53 31.4535 1049.29 31.7566 1050C32.0596 1050.71 32.4786 1051.33 33.0137 1051.86C33.5534 1052.4 34.1761 1052.82 34.8816 1053.12C35.5918 1053.43 36.3517 1053.58 37.1614 1053.58ZM47.8201 1055V1053.72L52.6213 1048.47C53.1847 1047.85 53.6487 1047.32 54.0133 1046.86C54.3779 1046.4 54.6478 1045.97 54.823 1045.57C55.0029 1045.16 55.0929 1044.73 55.0929 1044.29C55.0929 1043.78 54.9698 1043.34 54.7235 1042.96C54.4821 1042.59 54.1506 1042.3 53.7292 1042.1C53.3078 1041.89 52.8343 1041.79 52.3088 1041.79C51.7501 1041.79 51.2624 1041.91 50.8457 1042.14C50.4338 1042.37 50.1142 1042.68 49.8869 1043.1C49.6644 1043.51 49.5531 1043.99 49.5531 1044.55H47.877C47.877 1043.69 48.0734 1042.95 48.4664 1042.3C48.8594 1041.66 49.3945 1041.16 50.0716 1040.8C50.7534 1040.44 51.5181 1040.26 52.3656 1040.26C53.2179 1040.26 53.9731 1040.44 54.6312 1040.8C55.2894 1041.16 55.8055 1041.64 56.1795 1042.25C56.5536 1042.86 56.7406 1043.54 56.7406 1044.29C56.7406 1044.82 56.6435 1045.35 56.4494 1045.86C56.26 1046.37 55.9286 1046.93 55.4551 1047.56C54.9863 1048.18 54.3353 1048.93 53.502 1049.83L50.2349 1053.32V1053.44H56.9963V1055H47.8201ZM64.6738 1055.2C63.6038 1055.2 62.6923 1054.91 61.9395 1054.33C61.1866 1053.74 60.6113 1052.89 60.2136 1051.78C59.8159 1050.66 59.617 1049.31 59.617 1047.73C59.617 1046.16 59.8159 1044.81 60.2136 1043.7C60.6161 1042.58 61.1937 1041.73 61.9466 1041.14C62.7041 1040.55 63.6132 1040.26 64.6738 1040.26C65.7344 1040.26 66.6412 1040.55 67.394 1041.14C68.1516 1041.73 68.7292 1042.58 69.127 1043.7C69.5294 1044.81 69.7306 1046.16 69.7306 1047.73C69.7306 1049.31 69.5318 1050.66 69.1341 1051.78C68.7363 1052.89 68.161 1053.74 67.4082 1054.33C66.6554 1054.91 65.7439 1055.2 64.6738 1055.2ZM64.6738 1053.64C65.7344 1053.64 66.5583 1053.12 67.1454 1052.1C67.7325 1051.08 68.0261 1049.62 68.0261 1047.73C68.0261 1046.47 67.8912 1045.4 67.6213 1044.51C67.3561 1043.62 66.9726 1042.95 66.4707 1042.49C65.9735 1042.02 65.3746 1041.79 64.6738 1041.79C63.6227 1041.79 62.8012 1042.31 62.2093 1043.35C61.6175 1044.38 61.3216 1045.84 61.3216 1047.73C61.3216 1048.99 61.4541 1050.06 61.7193 1050.94C61.9844 1051.82 62.3656 1052.49 62.8627 1052.95C63.3646 1053.41 63.9683 1053.64 64.6738 1053.64ZM72.4295 1055V1053.72L77.2306 1048.47C77.7941 1047.85 78.2581 1047.32 78.6227 1046.86C78.9873 1046.4 79.2572 1045.97 79.4324 1045.57C79.6123 1045.16 79.7022 1044.73 79.7022 1044.29C79.7022 1043.78 79.5791 1043.34 79.3329 1042.96C79.0914 1042.59 78.76 1042.3 78.3386 1042.1C77.9172 1041.89 77.4437 1041.79 76.9181 1041.79C76.3594 1041.79 75.8717 1041.91 75.4551 1042.14C75.0431 1042.37 74.7235 1042.68 74.4963 1043.1C74.2737 1043.51 74.1625 1043.99 74.1625 1044.55H72.4863C72.4863 1043.69 72.6828 1042.95 73.0758 1042.3C73.4688 1041.66 74.0038 1041.16 74.6809 1040.8C75.3627 1040.44 76.1274 1040.26 76.975 1040.26C77.8272 1040.26 78.5824 1040.44 79.2406 1040.8C79.8987 1041.16 80.4148 1041.64 80.7889 1042.25C81.1629 1042.86 81.35 1043.54 81.35 1044.29C81.35 1044.82 81.2529 1045.35 81.0588 1045.86C80.8694 1046.37 80.5379 1046.93 80.0645 1047.56C79.5957 1048.18 78.9447 1048.93 78.1113 1049.83L74.8443 1053.32V1053.44H81.6056V1055H72.4295ZM83.8855 1052.02V1050.57L90.2775 1040.45H91.3287V1042.7H90.6184L85.7889 1050.34V1050.45H94.3968V1052.02H83.8855ZM90.7321 1055V1051.58V1050.9V1040.45H92.4082V1055H90.7321ZM110.894 1044.09C110.808 1043.37 110.463 1042.81 109.857 1042.41C109.251 1042.02 108.507 1041.82 107.627 1041.82C106.983 1041.82 106.419 1041.92 105.936 1042.13C105.458 1042.34 105.084 1042.63 104.814 1042.99C104.549 1043.35 104.416 1043.77 104.416 1044.23C104.416 1044.62 104.509 1044.96 104.693 1045.23C104.883 1045.51 105.124 1045.74 105.418 1045.92C105.711 1046.1 106.019 1046.25 106.341 1046.37C106.663 1046.48 106.959 1046.58 107.229 1046.65L108.706 1047.05C109.085 1047.14 109.506 1047.28 109.97 1047.46C110.439 1047.63 110.887 1047.87 111.313 1048.17C111.744 1048.47 112.099 1048.86 112.378 1049.33C112.657 1049.79 112.797 1050.37 112.797 1051.05C112.797 1051.84 112.591 1052.55 112.179 1053.18C111.772 1053.82 111.175 1054.32 110.389 1054.69C109.608 1055.07 108.659 1055.26 107.541 1055.26C106.5 1055.26 105.598 1055.09 104.835 1054.75C104.078 1054.42 103.481 1053.95 103.046 1053.35C102.615 1052.74 102.371 1052.05 102.314 1051.25H104.132C104.18 1051.8 104.364 1052.25 104.686 1052.61C105.013 1052.97 105.425 1053.23 105.922 1053.41C106.424 1053.58 106.964 1053.66 107.541 1053.66C108.214 1053.66 108.817 1053.56 109.352 1053.34C109.887 1053.12 110.311 1052.81 110.624 1052.41C110.936 1052.02 111.093 1051.55 111.093 1051.02C111.093 1050.54 110.958 1050.15 110.688 1049.84C110.418 1049.54 110.063 1049.29 109.622 1049.11C109.182 1048.92 108.706 1048.75 108.195 1048.61L106.405 1048.1C105.269 1047.77 104.369 1047.3 103.706 1046.7C103.043 1046.09 102.712 1045.3 102.712 1044.32C102.712 1043.5 102.932 1042.79 103.372 1042.19C103.817 1041.58 104.414 1041.1 105.162 1040.77C105.915 1040.43 106.755 1040.26 107.683 1040.26C108.621 1040.26 109.454 1040.42 110.183 1040.76C110.913 1041.09 111.49 1041.55 111.916 1042.12C112.347 1042.7 112.575 1043.36 112.598 1044.09H110.894ZM123.648 1044.09C123.562 1043.37 123.217 1042.81 122.611 1042.41C122.005 1042.02 121.261 1041.82 120.381 1041.82C119.737 1041.82 119.173 1041.92 118.69 1042.13C118.212 1042.34 117.838 1042.63 117.568 1042.99C117.303 1043.35 117.17 1043.77 117.17 1044.23C117.17 1044.62 117.263 1044.96 117.447 1045.23C117.637 1045.51 117.878 1045.74 118.172 1045.92C118.465 1046.1 118.773 1046.25 119.095 1046.37C119.417 1046.48 119.713 1046.58 119.983 1046.65L121.46 1047.05C121.839 1047.14 122.26 1047.28 122.724 1047.46C123.193 1047.63 123.64 1047.87 124.067 1048.17C124.497 1048.47 124.853 1048.86 125.132 1049.33C125.411 1049.79 125.551 1050.37 125.551 1051.05C125.551 1051.84 125.345 1052.55 124.933 1053.18C124.526 1053.82 123.929 1054.32 123.143 1054.69C122.362 1055.07 121.413 1055.26 120.295 1055.26C119.254 1055.26 118.352 1055.09 117.589 1054.75C116.832 1054.42 116.235 1053.95 115.8 1053.35C115.369 1052.74 115.125 1052.05 115.068 1051.25H116.886C116.934 1051.8 117.118 1052.25 117.44 1052.61C117.767 1052.97 118.179 1053.23 118.676 1053.41C119.178 1053.58 119.718 1053.66 120.295 1053.66C120.968 1053.66 121.571 1053.56 122.106 1053.34C122.641 1053.12 123.065 1052.81 123.378 1052.41C123.69 1052.02 123.846 1051.55 123.846 1051.02C123.846 1050.54 123.711 1050.15 123.442 1049.84C123.172 1049.54 122.817 1049.29 122.376 1049.11C121.936 1048.92 121.46 1048.75 120.949 1048.61L119.159 1048.1C118.023 1047.77 117.123 1047.3 116.46 1046.7C115.797 1046.09 115.466 1045.3 115.466 1044.32C115.466 1043.5 115.686 1042.79 116.126 1042.19C116.571 1041.58 117.168 1041.1 117.916 1040.77C118.669 1040.43 119.509 1040.26 120.437 1040.26C121.375 1040.26 122.208 1040.42 122.937 1040.76C123.666 1041.09 124.244 1041.55 124.67 1042.12C125.101 1042.7 125.328 1043.36 125.352 1044.09H123.648ZM128.447 1055V1040.45H137.225V1042.02H130.208V1046.93H136.771V1048.49H130.208V1053.44H137.339V1055H128.447ZM150.514 1055H146.025V1040.45H150.713C152.124 1040.45 153.331 1040.75 154.335 1041.33C155.338 1041.91 156.108 1042.74 156.643 1043.82C157.178 1044.9 157.445 1046.19 157.445 1047.7C157.445 1049.21 157.176 1050.52 156.636 1051.61C156.096 1052.7 155.31 1053.54 154.278 1054.13C153.246 1054.71 151.991 1055 150.514 1055ZM147.786 1053.44H150.4C151.603 1053.44 152.599 1053.21 153.39 1052.74C154.181 1052.28 154.77 1051.62 155.159 1050.76C155.547 1049.9 155.741 1048.88 155.741 1047.7C155.741 1046.52 155.549 1045.51 155.166 1044.67C154.782 1043.81 154.209 1043.16 153.447 1042.71C152.685 1042.25 151.735 1042.02 150.599 1042.02H147.786V1053.44ZM160.173 1055V1044.09H161.849V1055H160.173ZM161.025 1042.27C160.698 1042.27 160.417 1042.16 160.18 1041.94C159.948 1041.72 159.832 1041.45 159.832 1041.14C159.832 1040.82 159.948 1040.56 160.18 1040.33C160.417 1040.11 160.698 1040 161.025 1040C161.352 1040 161.631 1040.11 161.863 1040.33C162.1 1040.56 162.218 1040.82 162.218 1041.14C162.218 1041.45 162.1 1041.72 161.863 1041.94C161.631 1042.16 161.352 1042.27 161.025 1042.27ZM169.322 1059.32C168.513 1059.32 167.817 1059.21 167.234 1059.01C166.652 1058.8 166.166 1058.53 165.778 1058.2C165.395 1057.86 165.089 1057.51 164.862 1057.13L166.197 1056.19C166.349 1056.39 166.541 1056.62 166.773 1056.88C167.005 1057.14 167.322 1057.36 167.724 1057.55C168.131 1057.74 168.664 1057.84 169.322 1057.84C170.203 1057.84 170.93 1057.63 171.503 1057.2C172.076 1056.78 172.362 1056.11 172.362 1055.2V1052.98H172.22C172.097 1053.18 171.922 1053.43 171.694 1053.72C171.472 1054.01 171.15 1054.27 170.729 1054.5C170.312 1054.72 169.748 1054.83 169.038 1054.83C168.157 1054.83 167.367 1054.62 166.666 1054.2C165.97 1053.79 165.418 1053.18 165.011 1052.39C164.609 1051.59 164.407 1050.62 164.407 1049.49C164.407 1048.37 164.604 1047.4 164.997 1046.57C165.39 1045.74 165.937 1045.09 166.638 1044.64C167.338 1044.18 168.148 1043.95 169.067 1043.95C169.777 1043.95 170.34 1044.07 170.757 1044.3C171.178 1044.54 171.5 1044.8 171.723 1045.1C171.95 1045.39 172.125 1045.63 172.248 1045.82H172.419V1044.09H174.038V1055.31C174.038 1056.25 173.825 1057.01 173.399 1057.6C172.978 1058.19 172.409 1058.62 171.694 1058.9C170.984 1059.18 170.193 1059.32 169.322 1059.32ZM169.265 1053.32C169.938 1053.32 170.506 1053.17 170.97 1052.86C171.434 1052.55 171.787 1052.11 172.028 1051.53C172.27 1050.96 172.39 1050.27 172.39 1049.46C172.39 1048.67 172.272 1047.98 172.035 1047.38C171.799 1046.78 171.448 1046.31 170.984 1045.97C170.52 1045.62 169.947 1045.45 169.265 1045.45C168.555 1045.45 167.963 1045.63 167.49 1045.99C167.021 1046.35 166.668 1046.84 166.432 1047.44C166.2 1048.05 166.084 1048.72 166.084 1049.46C166.084 1050.22 166.202 1050.89 166.439 1051.47C166.68 1052.05 167.035 1052.5 167.504 1052.83C167.978 1053.16 168.565 1053.32 169.265 1053.32ZM177.106 1055V1044.09H178.782V1055H177.106ZM177.959 1042.27C177.632 1042.27 177.35 1042.16 177.113 1041.94C176.881 1041.72 176.765 1041.45 176.765 1041.14C176.765 1040.82 176.881 1040.56 177.113 1040.33C177.35 1040.11 177.632 1040 177.959 1040C178.285 1040 178.565 1040.11 178.797 1040.33C179.033 1040.56 179.152 1040.82 179.152 1041.14C179.152 1041.45 179.033 1041.72 178.797 1041.94C178.565 1042.16 178.285 1042.27 177.959 1042.27ZM186.597 1044.09V1045.51H180.943V1044.09H186.597ZM182.591 1041.48H184.267V1051.88C184.267 1052.35 184.336 1052.7 184.473 1052.94C184.615 1053.17 184.795 1053.33 185.013 1053.41C185.235 1053.48 185.47 1053.52 185.716 1053.52C185.901 1053.52 186.052 1053.51 186.171 1053.49C186.289 1053.47 186.384 1053.45 186.455 1053.44L186.796 1054.94C186.682 1054.99 186.523 1055.03 186.32 1055.07C186.116 1055.12 185.858 1055.14 185.546 1055.14C185.072 1055.14 184.608 1055.04 184.154 1054.84C183.704 1054.63 183.33 1054.32 183.031 1053.91C182.738 1053.49 182.591 1052.96 182.591 1052.33V1041.48ZM192.328 1055.26C191.637 1055.26 191.01 1055.13 190.446 1054.87C189.883 1054.6 189.435 1054.22 189.104 1053.72C188.772 1053.22 188.607 1052.61 188.607 1051.9C188.607 1051.28 188.73 1050.77 188.976 1050.38C189.222 1049.99 189.551 1049.68 189.963 1049.46C190.375 1049.24 190.83 1049.07 191.327 1048.96C191.829 1048.85 192.333 1048.76 192.84 1048.69C193.503 1048.61 194.04 1048.54 194.452 1048.5C194.869 1048.45 195.172 1048.38 195.361 1048.27C195.555 1048.16 195.652 1047.97 195.652 1047.7V1047.64C195.652 1046.94 195.46 1046.4 195.077 1046.01C194.698 1045.62 194.123 1045.43 193.351 1045.43C192.551 1045.43 191.923 1045.6 191.469 1045.95C191.014 1046.3 190.695 1046.68 190.51 1047.07L188.919 1046.51C189.203 1045.84 189.582 1045.33 190.056 1044.96C190.534 1044.58 191.055 1044.32 191.618 1044.18C192.186 1044.02 192.745 1043.95 193.294 1043.95C193.645 1043.95 194.047 1043.99 194.502 1044.08C194.961 1044.16 195.404 1044.33 195.83 1044.58C196.261 1044.84 196.618 1045.22 196.902 1045.74C197.186 1046.25 197.328 1046.95 197.328 1047.81V1055H195.652V1053.52H195.567C195.453 1053.76 195.264 1054.01 194.999 1054.28C194.734 1054.55 194.381 1054.78 193.941 1054.97C193.5 1055.16 192.963 1055.26 192.328 1055.26ZM192.584 1053.75C193.247 1053.75 193.806 1053.62 194.26 1053.36C194.719 1053.1 195.065 1052.76 195.297 1052.35C195.534 1051.94 195.652 1051.51 195.652 1051.05V1049.52C195.581 1049.6 195.425 1049.68 195.183 1049.75C194.947 1049.82 194.672 1049.88 194.36 1049.93C194.052 1049.98 193.751 1050.02 193.458 1050.06C193.169 1050.09 192.934 1050.12 192.754 1050.14C192.319 1050.2 191.912 1050.29 191.533 1050.42C191.159 1050.54 190.856 1050.73 190.624 1050.98C190.396 1051.23 190.283 1051.56 190.283 1051.99C190.283 1052.57 190.498 1053.01 190.929 1053.31C191.365 1053.6 191.916 1053.75 192.584 1053.75ZM202.064 1040.45V1055H200.388V1040.45H202.064ZM210.986 1040.45H213.088L218.031 1052.53H218.202L223.145 1040.45H225.247V1055H223.6V1043.95H223.458L218.912 1055H217.321L212.776 1043.95H212.634V1055H210.986V1040.45ZM231.762 1055.26C231.071 1055.26 230.443 1055.13 229.88 1054.87C229.316 1054.6 228.869 1054.22 228.537 1053.72C228.206 1053.22 228.04 1052.61 228.04 1051.9C228.04 1051.28 228.163 1050.77 228.41 1050.38C228.656 1049.99 228.985 1049.68 229.397 1049.46C229.809 1049.24 230.263 1049.07 230.76 1048.96C231.262 1048.85 231.767 1048.76 232.273 1048.69C232.936 1048.61 233.474 1048.54 233.885 1048.5C234.302 1048.45 234.605 1048.38 234.795 1048.27C234.989 1048.16 235.086 1047.97 235.086 1047.7V1047.64C235.086 1046.94 234.894 1046.4 234.51 1046.01C234.132 1045.62 233.556 1045.43 232.785 1045.43C231.984 1045.43 231.357 1045.6 230.903 1045.95C230.448 1046.3 230.128 1046.68 229.944 1047.07L228.353 1046.51C228.637 1045.84 229.016 1045.33 229.489 1044.96C229.967 1044.58 230.488 1044.32 231.052 1044.18C231.62 1044.02 232.179 1043.95 232.728 1043.95C233.078 1043.95 233.481 1043.99 233.935 1044.08C234.394 1044.16 234.837 1044.33 235.263 1044.58C235.694 1044.84 236.052 1045.22 236.336 1045.74C236.62 1046.25 236.762 1046.95 236.762 1047.81V1055H235.086V1053.52H235.001C234.887 1053.76 234.698 1054.01 234.432 1054.28C234.167 1054.55 233.814 1054.78 233.374 1054.97C232.934 1055.16 232.396 1055.26 231.762 1055.26ZM232.018 1053.75C232.68 1053.75 233.239 1053.62 233.694 1053.36C234.153 1053.1 234.499 1052.76 234.731 1052.35C234.967 1051.94 235.086 1051.51 235.086 1051.05V1049.52C235.015 1049.6 234.858 1049.68 234.617 1049.75C234.38 1049.82 234.106 1049.88 233.793 1049.93C233.485 1049.98 233.185 1050.02 232.891 1050.06C232.602 1050.09 232.368 1050.12 232.188 1050.14C231.752 1050.2 231.345 1050.29 230.966 1050.42C230.592 1050.54 230.289 1050.73 230.057 1050.98C229.83 1051.23 229.716 1051.56 229.716 1051.99C229.716 1052.57 229.932 1053.01 230.363 1053.31C230.798 1053.6 231.35 1053.75 232.018 1053.75ZM241.497 1048.44V1055H239.821V1044.09H241.441V1045.8H241.583C241.838 1045.24 242.227 1044.8 242.747 1044.46C243.268 1044.12 243.941 1043.95 244.764 1043.95C245.503 1043.95 246.149 1044.1 246.703 1044.4C247.257 1044.7 247.688 1045.16 247.996 1045.77C248.304 1046.37 248.458 1047.14 248.458 1048.07V1055H246.781V1048.18C246.781 1047.32 246.559 1046.66 246.114 1046.18C245.669 1045.7 245.058 1045.45 244.281 1045.45C243.746 1045.45 243.268 1045.57 242.847 1045.8C242.43 1046.03 242.101 1046.37 241.86 1046.82C241.618 1047.26 241.497 1047.8 241.497 1048.44Z" fill="#D9D9D9"/>
<rect x="345" y="69" width="1516" height="964" rx="15" fill="white"/>
<path d="M524.44 169.232H540.056V172.048H524.44V169.232ZM529.016 149.552H532.728V153.392H529.016V149.552ZM517.208 151.76H545.048V158.128H541.304V154.64H520.824V158.128H517.208V151.76ZM524.312 155.984H539.992V163.152H524.312V160.4H536.152V158.736H524.312V155.984ZM524.472 164.592H542.424V172.912H538.584V167.408H524.472V164.592ZM522.2 155.984H525.848V172.944H522.2V155.984ZM520.44 145.072H530.52V148.08H520.44V145.072ZM533.4 145.072H545.816V148.08H533.4V145.072ZM520.568 142.576L524.152 143.536C522.904 146.416 520.856 149.328 518.968 151.152C518.232 150.576 516.696 149.552 515.832 149.104C517.752 147.504 519.576 145.008 520.568 142.576ZM533.592 142.576L537.24 143.472C536.088 146.224 534.104 148.88 532.184 150.544C531.416 149.968 529.784 149.136 528.824 148.72C530.872 147.248 532.664 144.912 533.592 142.576ZM521.624 147.408L524.888 146.544C525.688 147.632 526.584 149.168 526.968 150.192L523.512 151.184C523.224 150.192 522.392 148.56 521.624 147.408ZM535.928 147.504L539.288 146.608C540.216 147.664 541.336 149.2 541.848 150.224L538.296 151.216C537.88 150.256 536.824 148.624 535.928 147.504ZM563.416 153.136V155.888H573.112V153.136H563.416ZM563.416 147.44V150.128H573.112V147.44H563.416ZM559.96 144.176H576.76V159.12H559.96V144.176ZM559.736 161.872H577.112V165.328H559.736V161.872ZM557.496 168.4H578.168V171.856H557.496V168.4ZM548.12 144.656H558.744V148.24H548.12V144.656ZM548.44 153.872H558.2V157.424H548.44V153.872ZM547.768 166.032C550.52 165.328 554.616 164.048 558.456 162.8L559.128 166.48C555.544 167.696 551.704 168.944 548.632 169.936L547.768 166.032ZM551.672 146.064H555.32V165.744L551.672 166.32V146.064ZM566.712 145.552H569.944V157.616H570.296V170.032H566.36V157.616H566.712V145.552ZM588.728 147.376V149.808H601.304V147.376H588.728ZM584.696 144.112H605.592V153.072H584.696V144.112ZM592.696 160.144H596.856V163.024C596.856 166.416 594.936 170.544 583.352 173.168C582.872 172.336 581.656 170.832 580.728 170.032C591.736 168.048 592.696 165.072 592.696 162.928V160.144ZM596.152 168.624L598.008 165.776C601.464 166.8 606.712 168.592 609.4 169.84L607.448 173.104C604.952 171.824 599.768 169.84 596.152 168.624ZM583.32 155.152H607.064V166.48H602.872V158.672H587.32V166.928H583.32V155.152ZM616.977 152.545L620.182 158.648L623.466 152.545H628.432L623.375 161.273L628.568 170H623.625L620.182 163.966L616.795 170H611.795L616.977 161.273L611.977 152.545H616.977ZM635.352 152.545L638.557 158.648L641.841 152.545H646.807L641.75 161.273L646.943 170H642L638.557 163.966L635.17 170H630.17L635.352 161.273L630.352 152.545H635.352ZM653.727 152.545L656.932 158.648L660.216 152.545H665.182L660.125 161.273L665.318 170H660.375L656.932 163.966L653.545 170H648.545L653.727 161.273L648.727 152.545H653.727Z" fill="black"/>
<circle cx="437" cy="159" r="50" fill="#F5F5F5"/>
<path d="M437 159C440.183 159 443.235 157.736 445.485 155.485C447.736 153.235 449 150.183 449 147C449 143.817 447.736 140.765 445.485 138.515C443.235 136.264 440.183 135 437 135C433.817 135 430.765 136.264 428.515 138.515C426.264 140.765 425 143.817 425 147C425 150.183 426.264 153.235 428.515 155.485C430.765 157.736 433.817 159 437 159ZM437 163C432.757 163 428.687 161.314 425.686 158.314C422.686 155.313 421 151.243 421 147C421 142.757 422.686 138.687 425.686 135.686C428.687 132.686 432.757 131 437 131C441.243 131 445.313 132.686 448.314 135.686C451.314 138.687 453 142.757 453 147C453 151.243 451.314 155.313 448.314 158.314C445.313 161.314 441.243 163 437 163ZM457 183V177C457 175.409 456.368 173.883 455.243 172.757C454.117 171.632 452.591 171 451 171H423C421.409 171 419.883 171.632 418.757 172.757C417.632 173.883 417 175.409 417 177V183C417 183.53 416.789 184.039 416.414 184.414C416.039 184.789 415.53 185 415 185C414.47 185 413.961 184.789 413.586 184.414C413.211 184.039 413 183.53 413 183V177C413 174.348 414.054 171.804 415.929 169.929C417.804 168.054 420.348 167 423 167H451C453.652 167 456.196 168.054 458.071 169.929C459.946 171.804 461 174.348 461 177V183C461 183.53 460.789 184.039 460.414 184.414C460.039 184.789 459.53 185 459 185C458.47 185 457.961 184.789 457.586 184.414C457.211 184.039 457 183.53 457 183Z" fill="#909090"/>
<line x1="386" y1="245.5" x2="1802" y2="245.5" stroke="#909090"/>
<rect x="1676" y="159" width="126" height="48" rx="10" fill="#F5F5F5"/>
<path d="M1709.86 174.06H1718.2V181.56H1709.78V180.26H1716.74V175.36H1709.86V174.06ZM1709.04 174.06H1710.48V187.28H1709.04V174.06ZM1709.86 177.2H1717.26V178.36H1709.86V177.2ZM1707.64 187.14C1709.36 186.8 1711.94 186.18 1714.46 185.58L1714.58 186.88C1712.22 187.5 1709.76 188.12 1707.92 188.58L1707.64 187.14ZM1714.12 181C1715.04 184.06 1717.08 186.48 1720.08 187.44C1719.76 187.74 1719.32 188.3 1719.12 188.72C1715.94 187.48 1713.9 184.82 1712.86 181.26L1714.12 181ZM1718.58 181.44L1719.78 182.34C1718.54 183.26 1717.02 184.28 1715.82 184.92L1714.88 184.14C1716.06 183.46 1717.66 182.28 1718.58 181.44ZM1706.22 181.1V188.18H1704.76V182.5H1701.96V181.1H1706.22ZM1706.22 187.52C1707.16 189 1708.94 189.68 1711.24 189.78C1713.42 189.86 1717.92 189.8 1720.28 189.64C1720.12 190 1719.86 190.72 1719.8 191.18C1717.6 191.26 1713.46 191.3 1711.24 191.22C1708.64 191.12 1706.84 190.42 1705.56 188.84C1704.6 189.7 1703.58 190.56 1702.5 191.44L1701.7 189.9C1702.66 189.26 1703.84 188.38 1704.86 187.52H1706.22ZM1702.36 174.7L1703.48 173.8C1704.78 174.66 1706.3 175.96 1706.98 176.92L1705.82 177.9C1705.16 176.94 1703.68 175.6 1702.36 174.7ZM1723.98 188.88H1738.1V190.36H1723.98V188.88ZM1730.12 173.32H1731.66V189.72H1730.12V173.32ZM1723.24 183.3H1724.76V191.62H1723.24V183.3ZM1737.3 183.3H1738.84V191.56H1737.3V183.3ZM1724.02 175.12H1725.5V180.56H1736.48V175.12H1738.04V182.02H1724.02V175.12ZM1747.28 178.78H1754.7V180.08H1747.28V178.78ZM1742.3 189.88H1759.72V191.14H1742.3V189.88ZM1743.5 173.98H1749.42V175.24H1743.5V173.98ZM1748.94 173.98H1749.2L1749.48 173.9L1750.44 174.4C1748.94 178.24 1745.6 181.1 1742.42 182.58C1742.22 182.26 1741.82 181.74 1741.52 181.48C1744.46 180.24 1747.7 177.44 1748.94 174.26V173.98ZM1752.32 173.26C1753.86 176.66 1756.92 179.76 1760.38 181.1C1760.02 181.4 1759.6 181.94 1759.36 182.34C1755.82 180.74 1752.76 177.48 1751.06 173.68L1752.32 173.26ZM1742.96 176.8L1743.76 175.98C1744.82 176.58 1746.06 177.5 1746.64 178.22L1745.8 179.14C1745.2 178.44 1744 177.44 1742.96 176.8ZM1756.34 173.38L1757.48 174.18C1756.44 175.16 1755.06 176.24 1754.02 176.94L1753.1 176.22C1754.12 175.48 1755.54 174.26 1756.34 173.38ZM1758.58 175.74L1759.7 176.54C1758.64 177.54 1757.2 178.62 1756.1 179.3L1755.18 178.58C1756.26 177.86 1757.74 176.64 1758.58 175.74ZM1746.92 182.96V185.6H1755.02V182.96H1746.92ZM1745.44 181.72H1756.56V186.84H1745.44V181.72ZM1746.6 187.16L1747.98 186.78C1748.54 187.64 1749.06 188.82 1749.26 189.6L1747.84 190.04C1747.64 189.26 1747.14 188.04 1746.6 187.16ZM1754.04 186.72L1755.5 187.12C1754.96 188.18 1754.36 189.28 1753.86 190.06L1752.58 189.68C1753.08 188.9 1753.72 187.6 1754.04 186.72ZM1762.32 180.78H1779.8V182.12H1762.32V180.78ZM1770.2 181.46H1771.74V189.98C1771.74 190.84 1771.52 191.22 1770.88 191.42C1770.26 191.64 1769.26 191.66 1767.7 191.64C1767.6 191.26 1767.38 190.72 1767.18 190.32C1768.34 190.38 1769.46 190.38 1769.8 190.36C1770.12 190.34 1770.2 190.24 1770.2 189.96V181.46ZM1771.56 182.32C1773 185.76 1776.06 188.44 1780.06 189.52C1779.72 189.82 1779.28 190.4 1779.06 190.82C1774.98 189.52 1771.98 186.6 1770.34 182.68L1771.56 182.32ZM1777.18 182.6L1778.46 183.54C1777.12 184.7 1775.36 185.96 1774.02 186.78L1772.98 185.94C1774.32 185.1 1776.12 183.68 1777.18 182.6ZM1763.68 183.66L1764.68 182.74C1765.94 183.44 1767.58 184.48 1768.38 185.26L1767.32 186.3C1766.56 185.52 1764.98 184.4 1763.68 183.66ZM1762.36 188.92C1764.4 188.16 1767.68 186.84 1770.72 185.58L1771.02 186.86C1768.28 188.06 1765.34 189.34 1763.16 190.26L1762.36 188.92ZM1764.28 177.56H1776.26V178.94H1764.28V177.56ZM1775.82 174.32H1775.98L1776.26 174.26L1777.44 174.34C1777.38 176.48 1777.2 179.38 1777 181.56L1775.46 181.48C1775.64 179.26 1775.78 176.12 1775.82 174.52V174.32ZM1763.68 174.32H1776.24V175.72H1763.68V174.32Z" fill="#FF0000"/>
<rect width="294" height="1084" fill="#355B32"/>
<path d="M21 321C21 318.239 23.2386 316 26 316H294V388H26C23.2386 388 21 385.761 21 383V321Z" fill="#F5F5F5"/>
<path d="M38.044 61.228H56.26V64.684H38.044V61.228ZM38.476 48.52H56.152V51.904H38.476V48.52ZM44.524 58.636L48.52 59.5C46.756 63.208 44.416 67.6 42.688 70.48L38.908 69.328C40.6 66.556 42.976 62.056 44.524 58.636ZM49.636 63.64L53.596 63.964C52.3 71.524 48.52 74.548 39.952 76.276C39.7 75.088 38.908 73.576 38.188 72.712C45.352 71.812 48.484 69.544 49.636 63.64ZM52.192 42.868L55.828 44.308C54.64 45.928 53.488 47.584 52.552 48.7L49.78 47.44C50.608 46.18 51.616 44.236 52.192 42.868ZM45.316 42.4H49.276V59.14H45.316V42.4ZM39.34 44.308L42.436 43.012C43.408 44.38 44.308 46.216 44.632 47.512L41.32 48.952C41.068 47.692 40.24 45.784 39.34 44.308ZM45.424 50.212L48.232 51.904C46.432 54.748 42.976 57.88 39.952 59.572C39.448 58.636 38.512 57.196 37.72 56.404C40.636 55.216 43.876 52.66 45.424 50.212ZM48.916 51.256C50.212 51.868 54.316 54.28 55.324 54.964L53.02 57.952C51.688 56.62 48.484 54.064 46.9 52.948L48.916 51.256ZM58.636 48.952H71.848V52.948H58.636V48.952ZM59.032 42.4L63.388 43.012C62.272 50.464 60.112 57.376 56.8 61.768C56.116 60.976 54.352 59.428 53.38 58.708C56.404 55.036 58.168 48.844 59.032 42.4ZM65.548 51.4L69.976 51.796C68.428 64.108 64.72 71.812 55.612 76.384C55.18 75.34 53.92 73.36 53.128 72.424C61.336 68.824 64.468 62.056 65.548 51.4ZM61.084 52.156C62.524 61.264 65.692 69.04 72.316 72.424C71.308 73.288 69.94 75.016 69.292 76.204C62.056 71.884 58.924 63.532 57.16 52.768L61.084 52.156ZM42.076 69.364L44.38 66.412C48.628 68.032 53.128 70.552 55.576 72.496L52.588 75.556C50.284 73.54 46.108 71.02 42.076 69.364ZM81.424 52.84H97.516V56.764H81.424V52.84ZM75.268 61.768H106.804V65.872H75.268V61.768ZM88.624 59.464H93.268V71.308C93.268 73.612 92.728 74.8 90.964 75.448C89.236 76.096 86.932 76.168 83.944 76.168C83.656 74.872 82.792 72.928 82.072 71.74C84.268 71.848 87.004 71.884 87.724 71.848C88.444 71.812 88.624 71.668 88.624 71.164V59.464ZM96.184 52.84H97.336L98.308 52.624L101.08 54.784C98.74 57.448 95.392 60.436 91.9 62.236C91.396 61.516 90.244 60.4 89.632 59.824C92.188 58.312 94.924 55.54 96.184 53.668V52.84ZM88.624 42.436H93.232V48.988H88.624V42.436ZM75.412 45.892H106.516V55.252H102.052V49.96H79.66V55.252H75.412V45.892ZM123.976 43.3H128.908C128.584 49.348 128.116 66.916 113.392 75.952C112.636 74.836 111.232 73.504 109.756 72.496C124.228 64.468 123.724 48.016 123.976 43.3ZM128.764 44.236C128.872 47.368 129.628 65.332 144.388 72.244C143.02 73.288 141.724 74.728 141.076 75.916C125.56 68.212 124.876 48.376 124.588 44.668L128.764 44.236ZM158.968 61.516H177.976V65.404H158.968V61.516ZM156.88 71.308H179.812V75.232H156.88V71.308ZM157.456 45.532H179.56V52.3H175.636V49.132H161.164V52.408H157.456V45.532ZM166.312 42.4H170.524V47.944H166.312V42.4ZM166.168 63.604H170.452V73.18H166.168V63.604ZM169.3 48.844H173.26V55.036C173.26 55.936 173.368 56.008 173.98 56.008C174.232 56.008 175.312 56.008 175.636 56.008C176.248 56.008 176.392 55.648 176.5 53.2C177.22 53.776 178.84 54.388 179.884 54.64C179.488 58.456 178.516 59.5 176.104 59.5C175.42 59.5 173.944 59.5 173.296 59.5C169.984 59.5 169.3 58.384 169.3 55.072V48.844ZM163.324 48.952H167.212C166.996 55.108 165.952 58.636 159.22 60.4C158.932 59.464 157.96 58.06 157.204 57.304C162.64 56.044 163.18 53.704 163.324 48.952ZM145.72 60.544C148.6 59.716 152.848 58.276 156.916 56.872L157.672 60.688C153.964 62.092 149.968 63.532 146.764 64.648L145.72 60.544ZM146.296 49.276H157.06V53.236H146.296V49.276ZM150.112 42.472H154.072V71.668C154.072 73.684 153.712 74.8 152.596 75.448C151.516 76.132 149.968 76.276 147.628 76.276C147.52 75.196 147.016 73.432 146.512 72.244C147.808 72.316 149.068 72.316 149.5 72.28C149.932 72.28 150.112 72.172 150.112 71.668V42.472ZM204.112 45.424H208.144V65.764H204.112V45.424ZM210.592 43.048H214.768V71.128C214.768 73.468 214.3 74.62 212.968 75.376C211.636 76.06 209.548 76.204 206.776 76.204C206.596 74.98 205.984 73.072 205.444 71.812C207.316 71.884 209.188 71.884 209.836 71.884C210.412 71.884 210.592 71.704 210.592 71.128V43.048ZM190.504 42.652H194.608V76.204H190.504V42.652ZM197.776 60.328H201.664V69.544C201.664 71.236 201.448 72.244 200.368 72.892C199.324 73.504 197.956 73.576 196.156 73.54C196.048 72.46 195.58 70.912 195.112 69.868C196.084 69.904 197.02 69.904 197.344 69.904C197.668 69.904 197.776 69.832 197.776 69.472V60.328ZM183.7 60.328H199.324V64.18H187.552V73.36H183.7V60.328ZM182.296 53.848H202.528V57.736H182.296V53.848ZM186.076 47.224H201.124V51.148H185.284L186.076 47.224ZM185.068 43.12L189.028 43.912C188.236 47.692 186.868 51.616 185.5 54.1C184.636 53.596 182.764 52.876 181.756 52.516C183.232 50.176 184.42 46.54 185.068 43.12ZM224.812 47.188V50.968H229.168V47.188H224.812ZM220.888 43.84H233.308V54.316H220.888V43.84ZM240.58 47.188V50.968H244.936V47.188H240.58ZM236.656 43.84H249.076V54.316H236.656V43.84ZM218.62 56.332H251.416V60.112H218.62V56.332ZM223.516 71.596H231.472V75.16H223.516V71.596ZM238.276 71.596H246.232V75.16H238.276V71.596ZM240.364 57.304C242.632 60.616 247.42 63.352 252.64 64.612C251.74 65.404 250.552 67.024 249.94 68.032C244.252 66.412 239.392 63.1 236.368 58.78L240.364 57.304ZM221.5 64.108H233.488V76.276H229.564V67.672H225.244V76.312H221.5V64.108ZM236.296 64.108H248.356V76.276H244.396V67.672H240.076V76.312H236.296V64.108ZM232.516 52.804L236.692 54.208C233.56 60.868 227.584 65.296 219.988 67.96C219.484 67.024 218.224 65.368 217.396 64.612C224.452 62.344 229.996 58.276 232.516 52.804Z" fill="white"/>
<path d="M87.896 260.784H97.4V263.208H87.896V260.784ZM87.872 265.008H97.4V267.408H87.872V265.008ZM97.16 250.176L99.968 251.16C99.176 252.84 98.288 254.544 97.544 255.696L95.048 254.76C95.768 253.536 96.68 251.64 97.16 250.176ZM85.232 251.424L87.656 250.344C88.616 251.664 89.648 253.44 90.008 254.664L87.416 255.888C87.104 254.664 86.168 252.816 85.232 251.424ZM85.976 256.32H97.448V259.008H88.808V272.136H85.976V256.32ZM96.104 256.32H98.912V269.04C98.912 270.408 98.648 271.176 97.76 271.632C96.848 272.064 95.552 272.088 93.752 272.088C93.632 271.32 93.248 270.144 92.888 269.4C93.992 269.448 95.264 269.448 95.624 269.448C95.984 269.424 96.104 269.328 96.104 269.016V256.32ZM91.088 249.6H93.992V258.12H91.088V249.6ZM78.776 251.832L80.456 249.816C81.944 250.536 83.84 251.664 84.776 252.576L82.976 254.784C82.136 253.896 80.264 252.624 78.776 251.832ZM77.672 258.216L79.304 256.176C80.816 256.872 82.76 258.024 83.72 258.936L81.992 261.192C81.104 260.28 79.208 259.008 77.672 258.216ZM78.344 270.192C79.52 268.368 81.176 265.32 82.472 262.512L84.584 264.24C83.504 266.832 82.16 269.616 80.864 272.04L78.344 270.192ZM107.84 265.32H110.696V268.776C110.696 269.448 110.888 269.544 112.04 269.544C112.544 269.544 114.704 269.544 115.352 269.544C116.264 269.544 116.432 269.28 116.552 267.504C117.128 267.912 118.352 268.344 119.12 268.488C118.76 271.368 117.968 272.088 115.64 272.088C114.968 272.088 112.352 272.088 111.704 272.088C108.584 272.088 107.84 271.296 107.84 268.8V265.32ZM110.504 264.768L112.616 263.352C113.888 264.312 115.352 265.704 116.024 266.784L113.768 268.32C113.168 267.288 111.752 265.8 110.504 264.768ZM117.968 266.016L120.272 264.552C121.952 266.064 123.8 268.152 124.52 269.784L122.024 271.392C121.376 269.832 119.648 267.624 117.968 266.016ZM104.288 264.864L106.856 265.8C106.256 267.768 105.392 269.928 103.928 271.344L101.528 269.664C102.824 268.512 103.784 266.664 104.288 264.864ZM108.224 256.896V258.096H117.944V256.896H108.224ZM108.224 260.184V261.384H117.944V260.184H108.224ZM108.224 253.632V254.832H117.944V253.632H108.224ZM105.44 251.448H120.848V263.592H105.44V251.448ZM111.512 249.36L115.016 249.792C114.464 250.944 113.84 251.928 113.432 252.648L110.768 252.12C111.056 251.28 111.368 250.176 111.512 249.36ZM139.832 259.536L142.928 260.4C140.144 267 134.816 270.432 127.544 272.232C127.208 271.512 126.296 270.168 125.72 269.496C132.776 268.152 137.72 265.2 139.832 259.536ZM132.104 255.384L135.08 256.536C133.352 258.768 130.664 261.072 128.408 262.488C127.856 261.864 126.704 260.76 125.984 260.232C128.264 259.104 130.712 257.256 132.104 255.384ZM134.24 259.656C136.376 264.96 140.96 268.272 148.328 269.424C147.68 270.072 146.84 271.368 146.432 272.184C138.632 270.696 134.192 266.904 131.48 260.472L134.24 259.656ZM126.344 252.384H147.632V255.216H126.344V252.384ZM135.464 249.576H138.416V254.232H135.464V249.576ZM139.28 256.896L141.656 255.144C143.768 256.56 146.6 258.696 147.992 260.256L145.424 262.248C144.2 260.712 141.44 258.432 139.28 256.896ZM150.824 250.896H171.344V253.584H150.824V250.896ZM156.512 256.296H166.088V258.864H156.512V256.296ZM155.288 262.752H165.32V265.32H155.288V262.752ZM150.056 268.488H172.016V271.152H150.056V268.488ZM156.056 252.792H159.2C158.36 257.328 157.136 262.992 156.224 266.472L153.08 266.232C154.112 262.704 155.36 257.112 156.056 252.792ZM164.744 256.296H167.84C167.384 260.688 166.712 266.16 166.16 269.496H162.992C163.64 266.04 164.384 260.568 164.744 256.296Z" fill="white"/>
<path d="M41 255.25V267.25C41 267.648 41.158 268.029 41.4393 268.311C41.7206 268.592 42.1022 268.75 42.5 268.75H57.5C57.8978 268.75 58.2794 268.592 58.5607 268.311C58.842 268.029 59 267.648 59 267.25V255.25H41ZM41 253.75H59C59.3978 253.75 59.7794 253.908 60.0607 254.189C60.342 254.471 60.5 254.852 60.5 255.25V267.25C60.5 268.046 60.1839 268.809 59.6213 269.371C59.0587 269.934 58.2956 270.25 57.5 270.25H42.5C41.7044 270.25 40.9413 269.934 40.3787 269.371C39.8161 268.809 39.5 268.046 39.5 267.25V255.25C39.5 254.852 39.658 254.471 39.9393 254.189C40.2206 253.908 40.6022 253.75 41 253.75Z" fill="white"/>
<path d="M59.1875 255.25L53.387 261.88C52.9646 262.363 52.4439 262.75 51.8598 263.015C51.2756 263.28 50.6415 263.417 50 263.417C49.3585 263.417 48.7244 263.28 48.1402 263.015C47.5561 262.75 47.0354 262.363 46.613 261.88L40.8125 255.25H59.1875ZM42.806 255.25L47.741 260.892C48.0226 261.213 48.3698 261.472 48.7592 261.648C49.1487 261.825 49.5715 261.917 49.9992 261.917C50.427 261.917 50.8498 261.825 51.2393 261.648C51.6287 261.472 51.9759 261.213 52.2575 260.892L57.194 255.25H42.806Z" fill="white"/>
<path d="M85.928 161.256H99.776V163.632H85.928V161.256ZM85.496 174.768H99.848V177.12H85.496V174.768ZM88.76 159.624H91.472V165H88.76V159.624ZM94.256 159.624H97.064V165H94.256V159.624ZM89.264 170.328V171.36H95.888V170.328H89.264ZM89.264 167.424V168.432H95.888V167.424H89.264ZM86.6 165.408H98.672V173.376H86.6V165.408ZM91.256 173.088H94.064C93.632 177.696 92.456 180.648 86.072 182.16C85.832 181.488 85.136 180.432 84.608 179.856C90.176 178.752 90.92 176.616 91.256 173.088ZM94.712 175.584C95.624 177.696 97.592 179.184 100.496 179.76C99.896 180.312 99.104 181.392 98.744 182.136C95.432 181.2 93.44 179.136 92.312 176.088L94.712 175.584ZM78.008 164.112H85.52V166.752H78.008V164.112ZM80.6 159.624H83.336V182.16H80.6V159.624ZM80.888 166.08L82.448 166.68C81.8 170.64 80.432 175.344 78.8 177.84C78.536 177 77.888 175.68 77.432 174.912C78.968 172.896 80.312 169.104 80.888 166.08ZM83.192 167.4C83.768 168.12 85.808 171.24 86.264 172.008L84.536 174C83.984 172.536 82.592 169.704 81.872 168.456L83.192 167.4ZM110.624 163.44H122.288V171.792H119.6V166.128H110.624V163.44ZM110.024 170.424H123.8V173.136H110.024V170.424ZM117.896 171.456C118.88 175.176 120.896 178.224 124.256 179.664C123.608 180.24 122.696 181.416 122.264 182.208C118.616 180.312 116.648 176.664 115.472 171.936L117.896 171.456ZM114.152 159.888H116.936V168.408C116.936 173.64 116.12 179.016 109.4 182.232C109.016 181.56 108.08 180.504 107.456 180.024C113.48 177.264 114.152 172.8 114.152 168.384V159.888ZM102.056 165.192H109.664V167.904H102.056V165.192ZM104.624 159.96H107.312V175.872H104.624V159.96ZM101.624 175.464C103.568 174.792 106.592 173.52 109.448 172.296L110.12 174.84C107.624 176.088 104.936 177.36 102.776 178.368L101.624 175.464ZM134.312 172.344H146.984V174.936H134.312V172.344ZM132.92 178.872H148.208V181.488H132.92V178.872ZM133.304 161.688H148.04V166.2H145.424V164.088H135.776V166.272H133.304V161.688ZM139.208 159.6H142.016V163.296H139.208V159.6ZM139.112 173.736H141.968V180.12H139.112V173.736ZM141.2 163.896H143.84V168.024C143.84 168.624 143.912 168.672 144.32 168.672C144.488 168.672 145.208 168.672 145.424 168.672C145.832 168.672 145.928 168.432 146 166.8C146.48 167.184 147.56 167.592 148.256 167.76C147.992 170.304 147.344 171 145.736 171C145.28 171 144.296 171 143.864 171C141.656 171 141.2 170.256 141.2 168.048V163.896ZM137.216 163.968H139.808C139.664 168.072 138.968 170.424 134.48 171.6C134.288 170.976 133.64 170.04 133.136 169.536C136.76 168.696 137.12 167.136 137.216 163.968ZM125.48 171.696C127.4 171.144 130.232 170.184 132.944 169.248L133.448 171.792C130.976 172.728 128.312 173.688 126.176 174.432L125.48 171.696ZM125.864 164.184H133.04V166.824H125.864V164.184ZM128.408 159.648H131.048V179.112C131.048 180.456 130.808 181.2 130.064 181.632C129.344 182.088 128.312 182.184 126.752 182.184C126.68 181.464 126.344 180.288 126.008 179.496C126.872 179.544 127.712 179.544 128 179.52C128.288 179.52 128.408 179.448 128.408 179.112V159.648ZM164.408 161.616H167.096V175.176H164.408V161.616ZM168.728 160.032H171.512V178.752C171.512 180.312 171.2 181.08 170.312 181.584C169.424 182.04 168.032 182.136 166.184 182.136C166.064 181.32 165.656 180.048 165.296 179.208C166.544 179.256 167.792 179.256 168.224 179.256C168.608 179.256 168.728 179.136 168.728 178.752V160.032ZM155.336 159.768H158.072V182.136H155.336V159.768ZM160.184 171.552H162.776V177.696C162.776 178.824 162.632 179.496 161.912 179.928C161.216 180.336 160.304 180.384 159.104 180.36C159.032 179.64 158.72 178.608 158.408 177.912C159.056 177.936 159.68 177.936 159.896 177.936C160.112 177.936 160.184 177.888 160.184 177.648V171.552ZM150.8 171.552H161.216V174.12H153.368V180.24H150.8V171.552ZM149.864 167.232H163.352V169.824H149.864V167.232ZM152.384 162.816H162.416V165.432H151.856L152.384 162.816ZM151.712 160.08L154.352 160.608C153.824 163.128 152.912 165.744 152 167.4C151.424 167.064 150.176 166.584 149.504 166.344C150.488 164.784 151.28 162.36 151.712 160.08Z" fill="white"/>
<path d="M47.1275 178C47.2828 177.561 47.5703 177.181 47.9504 176.913C48.3305 176.644 48.7845 176.5 49.25 176.5C49.7155 176.5 50.1695 176.644 50.5496 176.913C50.9297 177.181 51.2172 177.561 51.3725 178H59V179.5H51.3725C51.2172 179.939 50.9297 180.319 50.5496 180.587C50.1695 180.856 49.7155 181 49.25 181C48.7845 181 48.3305 180.856 47.9504 180.587C47.5703 180.319 47.2828 179.939 47.1275 179.5H41V178H47.1275ZM51.6275 171.25C51.7828 170.811 52.0703 170.431 52.4504 170.163C52.8305 169.894 53.2845 169.75 53.75 169.75C54.2155 169.75 54.6695 169.894 55.0496 170.163C55.4297 170.431 55.7172 170.811 55.8725 171.25H59V172.75H55.8725C55.7172 173.189 55.4297 173.569 55.0496 173.837C54.6695 174.106 54.2155 174.25 53.75 174.25C53.2845 174.25 52.8305 174.106 52.4504 173.837C52.0703 173.569 51.7828 173.189 51.6275 172.75H41V171.25H51.6275ZM44.1275 164.5C44.2828 164.061 44.5703 163.681 44.9504 163.413C45.3305 163.144 45.7845 163 46.25 163C46.7155 163 47.1695 163.144 47.5496 163.413C47.9297 163.681 48.2172 164.061 48.3725 164.5H59V166H48.3725C48.2172 166.439 47.9297 166.819 47.5496 167.087C47.1695 167.356 46.7155 167.5 46.25 167.5C45.7845 167.5 45.3305 167.356 44.9504 167.087C44.5703 166.819 44.2828 166.439 44.1275 166H41V164.5H44.1275Z" fill="white"/>
<path d="M52.0789 341.5C52.2377 341.5 52.3924 341.55 52.5207 341.644C52.649 341.737 52.7443 341.869 52.7929 342.021L53.6179 344.584C53.9644 344.753 54.2959 344.944 54.6124 345.158L57.2464 344.592C57.4017 344.558 57.5635 344.575 57.7086 344.64C57.8536 344.705 57.9743 344.814 58.0534 344.952L60.1324 348.55C60.2118 348.688 60.2454 348.847 60.2284 349.005C60.2115 349.163 60.1447 349.311 60.0379 349.429L58.2304 351.424C58.2567 351.807 58.2567 352.19 58.2304 352.573L60.0379 354.571C60.1447 354.689 60.2115 354.837 60.2284 354.995C60.2454 355.153 60.2118 355.312 60.1324 355.45L58.0534 359.05C57.9741 359.187 57.8533 359.296 57.7083 359.361C57.5633 359.425 57.4016 359.442 57.2464 359.409L54.6124 358.841C54.2974 359.055 53.9644 359.247 53.6194 359.416L52.7929 361.979C52.7443 362.131 52.649 362.263 52.5207 362.356C52.3924 362.45 52.2377 362.5 52.0789 362.5H47.9209C47.7621 362.5 47.6074 362.45 47.4791 362.356C47.3508 362.263 47.2555 362.131 47.2069 361.979L46.3834 359.417C46.0378 359.249 45.7045 359.056 45.3859 358.84L42.7534 359.409C42.5981 359.442 42.4363 359.425 42.2913 359.36C42.1462 359.295 42.0255 359.186 41.9464 359.049L39.8674 355.45C39.788 355.312 39.7544 355.153 39.7714 354.995C39.7884 354.837 39.8551 354.689 39.9619 354.571L41.7694 352.573C41.7432 352.191 41.7432 351.809 41.7694 351.427L39.9619 349.429C39.8551 349.311 39.7884 349.163 39.7714 349.005C39.7544 348.847 39.788 348.688 39.8674 348.55L41.9464 344.95C42.0257 344.813 42.1466 344.704 42.2916 344.639C42.4366 344.575 42.5983 344.558 42.7534 344.592L45.3859 345.16C45.7039 344.946 46.0369 344.752 46.3834 344.582L47.2084 342.021C47.2568 341.87 47.3517 341.738 47.4794 341.645C47.6071 341.551 47.7611 341.501 47.9194 341.5H52.0774H52.0789ZM51.5299 343H48.4699L47.6179 345.65L47.0434 345.931C46.761 346.069 46.4884 346.227 46.2274 346.402L45.6964 346.762L42.9724 346.174L41.4424 348.826L43.3099 350.893L43.2649 351.529C43.2434 351.843 43.2434 352.157 43.2649 352.471L43.3099 353.107L41.4394 355.174L42.9709 357.826L45.6949 357.24L46.2259 357.598C46.4869 357.773 46.7595 357.931 47.0419 358.069L47.6164 358.349L48.4699 361H51.5329L52.3879 358.348L52.9609 358.069C53.243 357.931 53.5152 357.774 53.7754 357.598L54.3049 357.24L57.0304 357.826L58.5604 355.174L56.6914 353.107L56.7364 352.471C56.758 352.157 56.758 351.842 56.7364 351.528L56.6914 350.892L58.5619 348.826L57.0304 346.174L54.3049 346.759L53.7754 346.402C53.5152 346.226 53.2431 346.069 52.9609 345.931L52.3879 345.652L51.5314 343H51.5299ZM49.9999 347.5C51.1934 347.5 52.338 347.974 53.1819 348.818C54.0258 349.662 54.4999 350.807 54.4999 352C54.4999 353.193 54.0258 354.338 53.1819 355.182C52.338 356.026 51.1934 356.5 49.9999 356.5C48.8064 356.5 47.6619 356.026 46.8179 355.182C45.974 354.338 45.4999 353.193 45.4999 352C45.4999 350.807 45.974 349.662 46.8179 348.818C47.6619 347.974 48.8064 347.5 49.9999 347.5ZM49.9999 349C49.2043 349 48.4412 349.316 47.8786 349.879C47.316 350.441 46.9999 351.204 46.9999 352C46.9999 352.796 47.316 353.559 47.8786 354.121C48.4412 354.684 49.2043 355 49.9999 355C50.7956 355 51.5586 354.684 52.1212 354.121C52.6838 353.559 52.9999 352.796 52.9999 352C52.9999 351.204 52.6838 350.441 52.1212 349.879C51.5586 349.316 50.7956 349 49.9999 349Z" fill="#355B32"/>
<path d="M82.88 355.632L85.88 356.76C84.392 358.632 82.064 360.624 80.192 361.848C79.592 361.272 78.344 360.312 77.576 359.856C79.544 358.848 81.656 357.192 82.88 355.632ZM91.832 357.144L94.256 355.512C96.152 356.736 98.72 358.608 99.992 359.928L97.376 361.776C96.272 360.48 93.8 358.488 91.832 357.144ZM79.856 347.256L81.848 345.408C83.84 346.536 86.504 348.336 87.8 349.68L85.64 351.768C84.464 350.424 81.92 348.504 79.856 347.256ZM92.336 350.232L94.688 348.744C96.656 350.376 99.176 352.752 100.376 354.408L97.784 356.112C96.728 354.48 94.304 351.984 92.336 350.232ZM87.392 353.496H90.464V362.16H87.392V353.496ZM78.08 352.176C82.952 352.128 90.632 351.96 97.544 351.816L97.4 354.408C90.584 354.72 83.264 354.936 78.368 355.056L78.08 352.176ZM92.408 343.824L95.216 345.312C92.096 348.504 87.944 351.912 84.704 354.072L82.424 352.584C85.712 350.4 89.864 346.776 92.408 343.824ZM86.336 342.168L89.168 343.536C87.656 345.288 85.808 347.16 84.392 348.336L82.04 347.064C83.456 345.816 85.28 343.776 86.336 342.168ZM96.368 339.84L98.408 342.288C93.08 343.368 85.736 343.848 79.496 343.92C79.424 343.176 79.088 342 78.824 341.328C85.016 341.208 92.072 340.728 96.368 339.84ZM118.52 346.872L120.752 345.744C122.024 347.424 123.56 349.704 124.184 351.192L121.76 352.488C121.208 351 119.792 348.624 118.52 346.872ZM110.504 342.768H123.944V345.336H110.504V342.768ZM117.32 351.744H120.152V358.512C120.152 359.256 120.2 359.352 120.536 359.352C120.68 359.352 121.208 359.352 121.376 359.352C121.76 359.352 121.832 358.824 121.904 355.752C122.456 356.232 123.608 356.688 124.328 356.904C124.136 360.672 123.512 361.776 121.664 361.776C121.256 361.776 120.392 361.776 120.008 361.776C117.824 361.776 117.32 360.936 117.32 358.512V351.744ZM112.808 351.768H115.64C115.448 356.808 114.8 360.288 110.432 362.304C110.096 361.584 109.304 360.456 108.656 359.928C112.328 358.368 112.664 355.824 112.808 351.768ZM110.768 352.152L110.672 350.04L112.064 349.176L121.232 348.408C121.232 349.104 121.376 350.16 121.496 350.712C112.832 351.6 111.608 351.768 110.768 352.152ZM114.92 340.2L117.632 339.528C118.064 340.392 118.592 341.616 118.856 342.336L115.952 343.128C115.76 342.384 115.304 341.112 114.92 340.2ZM110.768 352.152C110.648 351.432 110.192 349.992 109.928 349.368C110.456 349.248 111.152 349.056 111.68 348.552C112.352 347.928 114.584 344.976 115.472 343.68H118.856C117.464 345.6 115.16 348.792 113.744 350.352C113.744 350.352 110.768 351.408 110.768 352.152ZM102.608 355.944C102.464 355.392 102.008 354.024 101.672 353.28C102.296 353.136 102.824 352.608 103.568 351.744C104.36 350.904 106.736 347.616 108.248 344.424L110.744 345.984C109.04 349.056 106.712 352.176 104.48 354.456V354.552C104.48 354.552 102.608 355.44 102.608 355.944ZM102.608 355.944L102.368 353.544L103.592 352.656L109.976 351.384C109.904 352.176 109.904 353.304 109.976 353.904C104.24 355.224 103.232 355.56 102.608 355.944ZM102.44 350.088C102.272 349.488 101.792 348.024 101.432 347.208C101.936 347.088 102.368 346.584 102.872 345.816C103.4 345.072 104.912 342.144 105.752 339.384L108.68 340.728C107.552 343.464 105.752 346.464 104.072 348.528V348.6C104.072 348.6 102.44 349.584 102.44 350.088ZM102.44 350.088L102.368 348L103.568 347.184L107.6 346.872C107.456 347.616 107.312 348.696 107.312 349.272C103.712 349.68 102.92 349.848 102.44 350.088ZM101.816 358.368C103.832 357.768 106.952 356.664 109.928 355.608L110.456 358.032C107.744 359.184 104.816 360.336 102.488 361.224L101.816 358.368ZM139.352 348H146.024V350.76H139.352V348ZM137.96 348H140.816V358.008C140.816 359.016 140.96 359.16 141.896 359.16C142.304 359.16 144.08 359.16 144.584 359.16C145.496 359.16 145.664 358.584 145.784 355.368C146.408 355.848 147.632 356.352 148.4 356.544C148.088 360.624 147.344 361.848 144.824 361.848C144.248 361.848 142.016 361.848 141.464 361.848C138.8 361.848 137.96 361.008 137.96 358.032V348ZM137.864 340.728H147.464V352.248H144.68V343.488H137.864V340.728ZM126.44 344.976H136.52V361.68H134.24V347.352H128.648V362.016H126.44V344.976ZM127.64 354.624H135.32V356.616H127.64V354.624ZM127.64 358.272H135.32V360.504H127.64V358.272ZM126.008 340.488H137V343.032H126.008V340.488ZM129.224 341.064H131.12V346.848H129.224V341.064ZM132.08 341.064H134V346.848H132.08V341.064ZM129.704 346.824H131.024V349.248C131.024 350.616 130.784 352.392 129.656 353.64C129.44 353.376 128.912 352.896 128.6 352.728C129.584 351.672 129.704 350.352 129.704 349.224V346.824ZM131.84 346.824H133.184V351.24C133.184 351.552 133.208 351.6 133.376 351.6C133.448 351.6 133.712 351.6 133.784 351.6C134.024 351.6 134.072 351.576 134.12 351.504C134.384 351.744 134.936 351.936 135.344 352.056C135.176 352.728 134.768 352.992 134.024 352.992C133.832 352.992 133.4 352.992 133.208 352.992C132.152 352.992 131.84 352.68 131.84 351.264V346.824ZM164.912 342.456V343.848H167.72V342.456H164.912ZM159.56 342.456V343.848H162.296V342.456H159.56ZM154.28 342.456V343.848H156.944V342.456H154.28ZM151.52 340.56H170.624V345.792H151.52V340.56ZM150.44 346.728H171.536V348.84H150.44V346.728ZM152.864 359.136H172.04V361.344H152.864V359.136ZM151.688 350.112H154.616V362.184H151.688V350.112ZM158.888 353.568V354.408H167.024V353.568H158.888ZM158.888 355.848V356.712H167.024V355.848H158.888ZM158.888 351.312V352.128H167.024V351.312H158.888ZM156.224 349.776H169.808V358.224H156.224V349.776ZM159.776 345.312L162.656 345.504C162.464 347.232 162.152 349.296 161.888 350.64H159.104C159.368 349.224 159.632 347.064 159.776 345.312Z" fill="#355B32"/>
<path d="M34.0137 1051.73C34.0137 1050.95 34.2031 1050.24 34.5819 1049.6C34.9606 1048.96 35.4696 1048.46 36.1088 1048.08C36.748 1047.7 37.4559 1047.51 38.2324 1047.51C38.9048 1047.51 39.525 1047.65 40.0932 1047.94C40.6661 1048.23 41.1396 1048.63 41.5137 1049.13C41.8877 1049.62 42.1197 1050.19 42.2097 1050.82H40.4909C40.3962 1050.33 40.1335 1049.93 39.7026 1049.62C39.2717 1049.31 38.7817 1049.16 38.2324 1049.16C37.7589 1049.16 37.3281 1049.27 36.9398 1049.5C36.5516 1049.74 36.2414 1050.05 36.0094 1050.43C35.7774 1050.82 35.6614 1051.25 35.6614 1051.73C35.6614 1052.2 35.7774 1052.63 36.0094 1053.02C36.2414 1053.41 36.5516 1053.72 36.9398 1053.95C37.3281 1054.18 37.7589 1054.3 38.2324 1054.3C38.7817 1054.3 39.2457 1054.14 39.6245 1053.84C40.008 1053.52 40.2495 1053.12 40.3489 1052.64H42.0676C41.9777 1053.27 41.7575 1053.83 41.4071 1054.33C41.0568 1054.83 40.6069 1055.22 40.0577 1055.51C39.5132 1055.8 38.9048 1055.95 38.2324 1055.95C37.4559 1055.95 36.748 1055.76 36.1088 1055.38C35.4696 1055 34.9606 1054.49 34.5819 1053.85C34.2031 1053.21 34.0137 1052.5 34.0137 1051.73ZM38.1614 1059.23C37.1292 1059.23 36.1586 1059.03 35.2495 1058.64C34.3451 1058.26 33.5473 1057.72 32.856 1057.03C32.1694 1056.34 31.6297 1055.54 31.2367 1054.64C30.8484 1053.73 30.6567 1052.76 30.6614 1051.73C30.6661 1050.69 30.8626 1049.72 31.2509 1048.82C31.6439 1047.91 32.1837 1047.12 32.8702 1046.43C33.5568 1045.74 34.3522 1045.2 35.2566 1044.81C36.1609 1044.42 37.1292 1044.23 38.1614 1044.23C39.1983 1044.23 40.169 1044.42 41.0733 1044.81C41.9824 1045.2 42.7779 1045.74 43.4597 1046.43C44.1462 1047.12 44.6837 1047.91 45.0719 1048.82C45.4602 1049.72 45.6567 1050.69 45.6614 1051.73C45.6661 1052.76 45.4744 1053.73 45.0861 1054.64C44.6979 1055.54 44.1605 1056.34 43.4739 1057.03C42.7873 1057.72 41.9895 1058.26 41.0804 1058.64C40.1713 1059.03 39.1983 1059.23 38.1614 1059.23ZM38.1614 1057.58C38.9711 1057.58 39.731 1057.43 40.4412 1057.12C41.1515 1056.82 41.7741 1056.4 42.3091 1055.87C42.8442 1055.33 43.2632 1054.71 43.5662 1054.01C43.8693 1053.3 44.0184 1052.54 44.0137 1051.73C44.0089 1050.92 43.8551 1050.16 43.552 1049.45C43.249 1048.74 42.83 1048.12 42.2949 1047.59C41.7599 1047.05 41.1396 1046.63 40.4341 1046.33C39.7286 1046.03 38.9711 1045.88 38.1614 1045.88C37.3565 1045.88 36.6013 1046.03 35.8958 1046.33C35.1903 1046.63 34.57 1047.05 34.035 1047.59C33.4999 1048.13 33.0785 1048.75 32.7708 1049.46C32.4677 1050.17 32.3139 1050.92 32.3091 1051.73C32.3044 1052.53 32.4535 1053.29 32.7566 1054C33.0596 1054.71 33.4786 1055.33 34.0137 1055.86C34.5534 1056.4 35.1761 1056.82 35.8816 1057.12C36.5918 1057.43 37.3517 1057.58 38.1614 1057.58ZM48.8201 1059V1057.72L53.6213 1052.47C54.1847 1051.85 54.6487 1051.32 55.0133 1050.86C55.3779 1050.4 55.6478 1049.97 55.823 1049.57C56.0029 1049.16 56.0929 1048.73 56.0929 1048.29C56.0929 1047.78 55.9698 1047.34 55.7235 1046.96C55.4821 1046.59 55.1506 1046.3 54.7292 1046.1C54.3078 1045.89 53.8343 1045.79 53.3088 1045.79C52.7501 1045.79 52.2624 1045.91 51.8457 1046.14C51.4338 1046.37 51.1142 1046.68 50.8869 1047.1C50.6644 1047.51 50.5531 1047.99 50.5531 1048.55H48.877C48.877 1047.69 49.0734 1046.95 49.4664 1046.3C49.8594 1045.66 50.3945 1045.16 51.0716 1044.8C51.7534 1044.44 52.5181 1044.26 53.3656 1044.26C54.2179 1044.26 54.9731 1044.44 55.6312 1044.8C56.2894 1045.16 56.8055 1045.64 57.1795 1046.25C57.5536 1046.86 57.7406 1047.54 57.7406 1048.29C57.7406 1048.82 57.6435 1049.35 57.4494 1049.86C57.26 1050.37 56.9286 1050.93 56.4551 1051.56C55.9863 1052.18 55.3353 1052.93 54.502 1053.83L51.2349 1057.32V1057.44H57.9963V1059H48.8201ZM65.6738 1059.2C64.6038 1059.2 63.6923 1058.91 62.9395 1058.33C62.1866 1057.74 61.6113 1056.89 61.2136 1055.78C60.8159 1054.66 60.617 1053.31 60.617 1051.73C60.617 1050.16 60.8159 1048.81 61.2136 1047.7C61.6161 1046.58 62.1937 1045.73 62.9466 1045.14C63.7041 1044.55 64.6132 1044.26 65.6738 1044.26C66.7344 1044.26 67.6412 1044.55 68.394 1045.14C69.1516 1045.73 69.7292 1046.58 70.127 1047.7C70.5294 1048.81 70.7306 1050.16 70.7306 1051.73C70.7306 1053.31 70.5318 1054.66 70.1341 1055.78C69.7363 1056.89 69.161 1057.74 68.4082 1058.33C67.6554 1058.91 66.7439 1059.2 65.6738 1059.2ZM65.6738 1057.64C66.7344 1057.64 67.5583 1057.12 68.1454 1056.1C68.7325 1055.08 69.0261 1053.62 69.0261 1051.73C69.0261 1050.47 68.8912 1049.4 68.6213 1048.51C68.3561 1047.62 67.9726 1046.95 67.4707 1046.49C66.9735 1046.02 66.3746 1045.79 65.6738 1045.79C64.6227 1045.79 63.8012 1046.31 63.2093 1047.35C62.6175 1048.38 62.3216 1049.84 62.3216 1051.73C62.3216 1052.99 62.4541 1054.06 62.7193 1054.94C62.9844 1055.82 63.3656 1056.49 63.8627 1056.95C64.3646 1057.41 64.9683 1057.64 65.6738 1057.64ZM73.4295 1059V1057.72L78.2306 1052.47C78.7941 1051.85 79.2581 1051.32 79.6227 1050.86C79.9873 1050.4 80.2572 1049.97 80.4324 1049.57C80.6123 1049.16 80.7022 1048.73 80.7022 1048.29C80.7022 1047.78 80.5791 1047.34 80.3329 1046.96C80.0914 1046.59 79.76 1046.3 79.3386 1046.1C78.9172 1045.89 78.4437 1045.79 77.9181 1045.79C77.3594 1045.79 76.8717 1045.91 76.4551 1046.14C76.0431 1046.37 75.7235 1046.68 75.4963 1047.1C75.2737 1047.51 75.1625 1047.99 75.1625 1048.55H73.4863C73.4863 1047.69 73.6828 1046.95 74.0758 1046.3C74.4688 1045.66 75.0038 1045.16 75.6809 1044.8C76.3627 1044.44 77.1274 1044.26 77.975 1044.26C78.8272 1044.26 79.5824 1044.44 80.2406 1044.8C80.8987 1045.16 81.4148 1045.64 81.7889 1046.25C82.1629 1046.86 82.35 1047.54 82.35 1048.29C82.35 1048.82 82.2529 1049.35 82.0588 1049.86C81.8694 1050.37 81.5379 1050.93 81.0645 1051.56C80.5957 1052.18 79.9447 1052.93 79.1113 1053.83L75.8443 1057.32V1057.44H82.6056V1059H73.4295ZM84.8855 1056.02V1054.57L91.2775 1044.45H92.3287V1046.7H91.6184L86.7889 1054.34V1054.45H95.3968V1056.02H84.8855ZM91.7321 1059V1055.58V1054.9V1044.45H93.4082V1059H91.7321ZM111.894 1048.09C111.808 1047.37 111.463 1046.81 110.857 1046.41C110.251 1046.02 109.507 1045.82 108.627 1045.82C107.983 1045.82 107.419 1045.92 106.936 1046.13C106.458 1046.34 106.084 1046.63 105.814 1046.99C105.549 1047.35 105.416 1047.77 105.416 1048.23C105.416 1048.62 105.509 1048.96 105.693 1049.23C105.883 1049.51 106.124 1049.74 106.418 1049.92C106.711 1050.1 107.019 1050.25 107.341 1050.37C107.663 1050.48 107.959 1050.58 108.229 1050.65L109.706 1051.05C110.085 1051.14 110.506 1051.28 110.97 1051.46C111.439 1051.63 111.887 1051.87 112.313 1052.17C112.744 1052.47 113.099 1052.86 113.378 1053.33C113.657 1053.79 113.797 1054.37 113.797 1055.05C113.797 1055.84 113.591 1056.55 113.179 1057.18C112.772 1057.82 112.175 1058.32 111.389 1058.69C110.608 1059.07 109.659 1059.26 108.541 1059.26C107.5 1059.26 106.598 1059.09 105.835 1058.75C105.078 1058.42 104.481 1057.95 104.046 1057.35C103.615 1056.74 103.371 1056.05 103.314 1055.25H105.132C105.18 1055.8 105.364 1056.25 105.686 1056.61C106.013 1056.97 106.425 1057.23 106.922 1057.41C107.424 1057.58 107.964 1057.66 108.541 1057.66C109.214 1057.66 109.817 1057.56 110.352 1057.34C110.887 1057.12 111.311 1056.81 111.624 1056.41C111.936 1056.02 112.093 1055.55 112.093 1055.02C112.093 1054.54 111.958 1054.15 111.688 1053.84C111.418 1053.54 111.063 1053.29 110.622 1053.11C110.182 1052.92 109.706 1052.75 109.195 1052.61L107.405 1052.1C106.269 1051.77 105.369 1051.3 104.706 1050.7C104.043 1050.09 103.712 1049.3 103.712 1048.32C103.712 1047.5 103.932 1046.79 104.372 1046.19C104.817 1045.58 105.414 1045.1 106.162 1044.77C106.915 1044.43 107.755 1044.26 108.683 1044.26C109.621 1044.26 110.454 1044.42 111.183 1044.76C111.913 1045.09 112.49 1045.55 112.916 1046.12C113.347 1046.7 113.575 1047.36 113.598 1048.09H111.894ZM124.648 1048.09C124.562 1047.37 124.217 1046.81 123.611 1046.41C123.005 1046.02 122.261 1045.82 121.381 1045.82C120.737 1045.82 120.173 1045.92 119.69 1046.13C119.212 1046.34 118.838 1046.63 118.568 1046.99C118.303 1047.35 118.17 1047.77 118.17 1048.23C118.17 1048.62 118.263 1048.96 118.447 1049.23C118.637 1049.51 118.878 1049.74 119.172 1049.92C119.465 1050.1 119.773 1050.25 120.095 1050.37C120.417 1050.48 120.713 1050.58 120.983 1050.65L122.46 1051.05C122.839 1051.14 123.26 1051.28 123.724 1051.46C124.193 1051.63 124.64 1051.87 125.067 1052.17C125.497 1052.47 125.853 1052.86 126.132 1053.33C126.411 1053.79 126.551 1054.37 126.551 1055.05C126.551 1055.84 126.345 1056.55 125.933 1057.18C125.526 1057.82 124.929 1058.32 124.143 1058.69C123.362 1059.07 122.413 1059.26 121.295 1059.26C120.254 1059.26 119.352 1059.09 118.589 1058.75C117.832 1058.42 117.235 1057.95 116.8 1057.35C116.369 1056.74 116.125 1056.05 116.068 1055.25H117.886C117.934 1055.8 118.118 1056.25 118.44 1056.61C118.767 1056.97 119.179 1057.23 119.676 1057.41C120.178 1057.58 120.718 1057.66 121.295 1057.66C121.968 1057.66 122.571 1057.56 123.106 1057.34C123.641 1057.12 124.065 1056.81 124.378 1056.41C124.69 1056.02 124.846 1055.55 124.846 1055.02C124.846 1054.54 124.711 1054.15 124.442 1053.84C124.172 1053.54 123.817 1053.29 123.376 1053.11C122.936 1052.92 122.46 1052.75 121.949 1052.61L120.159 1052.1C119.023 1051.77 118.123 1051.3 117.46 1050.7C116.797 1050.09 116.466 1049.3 116.466 1048.32C116.466 1047.5 116.686 1046.79 117.126 1046.19C117.571 1045.58 118.168 1045.1 118.916 1044.77C119.669 1044.43 120.509 1044.26 121.437 1044.26C122.375 1044.26 123.208 1044.42 123.937 1044.76C124.666 1045.09 125.244 1045.55 125.67 1046.12C126.101 1046.7 126.328 1047.36 126.352 1048.09H124.648ZM129.447 1059V1044.45H138.225V1046.02H131.208V1050.93H137.771V1052.49H131.208V1057.44H138.339V1059H129.447ZM151.514 1059H147.025V1044.45H151.713C153.124 1044.45 154.331 1044.75 155.335 1045.33C156.338 1045.91 157.108 1046.74 157.643 1047.82C158.178 1048.9 158.445 1050.19 158.445 1051.7C158.445 1053.21 158.176 1054.52 157.636 1055.61C157.096 1056.7 156.31 1057.54 155.278 1058.13C154.246 1058.71 152.991 1059 151.514 1059ZM148.786 1057.44H151.4C152.603 1057.44 153.599 1057.21 154.39 1056.74C155.181 1056.28 155.77 1055.62 156.159 1054.76C156.547 1053.9 156.741 1052.88 156.741 1051.7C156.741 1050.52 156.549 1049.51 156.166 1048.67C155.782 1047.81 155.209 1047.16 154.447 1046.71C153.685 1046.25 152.735 1046.02 151.599 1046.02H148.786V1057.44ZM161.173 1059V1048.09H162.849V1059H161.173ZM162.025 1046.27C161.698 1046.27 161.417 1046.16 161.18 1045.94C160.948 1045.72 160.832 1045.45 160.832 1045.14C160.832 1044.82 160.948 1044.56 161.18 1044.33C161.417 1044.11 161.698 1044 162.025 1044C162.352 1044 162.631 1044.11 162.863 1044.33C163.1 1044.56 163.218 1044.82 163.218 1045.14C163.218 1045.45 163.1 1045.72 162.863 1045.94C162.631 1046.16 162.352 1046.27 162.025 1046.27ZM170.322 1063.32C169.513 1063.32 168.817 1063.21 168.234 1063.01C167.652 1062.8 167.166 1062.53 166.778 1062.2C166.395 1061.86 166.089 1061.51 165.862 1061.13L167.197 1060.19C167.349 1060.39 167.541 1060.62 167.773 1060.88C168.005 1061.14 168.322 1061.36 168.724 1061.55C169.131 1061.74 169.664 1061.84 170.322 1061.84C171.203 1061.84 171.93 1061.63 172.503 1061.2C173.076 1060.78 173.362 1060.11 173.362 1059.2V1056.98H173.22C173.097 1057.18 172.922 1057.43 172.694 1057.72C172.472 1058.01 172.15 1058.27 171.729 1058.5C171.312 1058.72 170.748 1058.83 170.038 1058.83C169.157 1058.83 168.367 1058.62 167.666 1058.2C166.97 1057.79 166.418 1057.18 166.011 1056.39C165.609 1055.59 165.407 1054.62 165.407 1053.49C165.407 1052.37 165.604 1051.4 165.997 1050.57C166.39 1049.74 166.937 1049.09 167.638 1048.64C168.338 1048.18 169.148 1047.95 170.067 1047.95C170.777 1047.95 171.34 1048.07 171.757 1048.3C172.178 1048.54 172.5 1048.8 172.723 1049.1C172.95 1049.39 173.125 1049.63 173.248 1049.82H173.419V1048.09H175.038V1059.31C175.038 1060.25 174.825 1061.01 174.399 1061.6C173.978 1062.19 173.409 1062.62 172.694 1062.9C171.984 1063.18 171.193 1063.32 170.322 1063.32ZM170.265 1057.32C170.938 1057.32 171.506 1057.17 171.97 1056.86C172.434 1056.55 172.787 1056.11 173.028 1055.53C173.27 1054.96 173.39 1054.27 173.39 1053.46C173.39 1052.67 173.272 1051.98 173.035 1051.38C172.799 1050.78 172.448 1050.31 171.984 1049.97C171.52 1049.62 170.947 1049.45 170.265 1049.45C169.555 1049.45 168.963 1049.63 168.49 1049.99C168.021 1050.35 167.668 1050.84 167.432 1051.44C167.2 1052.05 167.084 1052.72 167.084 1053.46C167.084 1054.22 167.202 1054.89 167.439 1055.47C167.68 1056.05 168.035 1056.5 168.504 1056.83C168.978 1057.16 169.565 1057.32 170.265 1057.32ZM178.106 1059V1048.09H179.782V1059H178.106ZM178.959 1046.27C178.632 1046.27 178.35 1046.16 178.113 1045.94C177.881 1045.72 177.765 1045.45 177.765 1045.14C177.765 1044.82 177.881 1044.56 178.113 1044.33C178.35 1044.11 178.632 1044 178.959 1044C179.285 1044 179.565 1044.11 179.797 1044.33C180.033 1044.56 180.152 1044.82 180.152 1045.14C180.152 1045.45 180.033 1045.72 179.797 1045.94C179.565 1046.16 179.285 1046.27 178.959 1046.27ZM187.597 1048.09V1049.51H181.943V1048.09H187.597ZM183.591 1045.48H185.267V1055.88C185.267 1056.35 185.336 1056.7 185.473 1056.94C185.615 1057.17 185.795 1057.33 186.013 1057.41C186.235 1057.48 186.47 1057.52 186.716 1057.52C186.901 1057.52 187.052 1057.51 187.171 1057.49C187.289 1057.47 187.384 1057.45 187.455 1057.44L187.796 1058.94C187.682 1058.99 187.523 1059.03 187.32 1059.07C187.116 1059.12 186.858 1059.14 186.546 1059.14C186.072 1059.14 185.608 1059.04 185.154 1058.84C184.704 1058.63 184.33 1058.32 184.031 1057.91C183.738 1057.49 183.591 1056.96 183.591 1056.33V1045.48ZM193.328 1059.26C192.637 1059.26 192.01 1059.13 191.446 1058.87C190.883 1058.6 190.435 1058.22 190.104 1057.72C189.772 1057.22 189.607 1056.61 189.607 1055.9C189.607 1055.28 189.73 1054.77 189.976 1054.38C190.222 1053.99 190.551 1053.68 190.963 1053.46C191.375 1053.24 191.83 1053.07 192.327 1052.96C192.829 1052.85 193.333 1052.76 193.84 1052.69C194.503 1052.61 195.04 1052.54 195.452 1052.5C195.869 1052.45 196.172 1052.38 196.361 1052.27C196.555 1052.16 196.652 1051.97 196.652 1051.7V1051.64C196.652 1050.94 196.46 1050.4 196.077 1050.01C195.698 1049.62 195.123 1049.43 194.351 1049.43C193.551 1049.43 192.923 1049.6 192.469 1049.95C192.014 1050.3 191.695 1050.68 191.51 1051.07L189.919 1050.51C190.203 1049.84 190.582 1049.33 191.056 1048.96C191.534 1048.58 192.055 1048.32 192.618 1048.18C193.186 1048.02 193.745 1047.95 194.294 1047.95C194.645 1047.95 195.047 1047.99 195.502 1048.08C195.961 1048.16 196.404 1048.33 196.83 1048.58C197.261 1048.84 197.618 1049.22 197.902 1049.74C198.186 1050.25 198.328 1050.95 198.328 1051.81V1059H196.652V1057.52H196.567C196.453 1057.76 196.264 1058.01 195.999 1058.28C195.734 1058.55 195.381 1058.78 194.941 1058.97C194.5 1059.16 193.963 1059.26 193.328 1059.26ZM193.584 1057.75C194.247 1057.75 194.806 1057.62 195.26 1057.36C195.719 1057.1 196.065 1056.76 196.297 1056.35C196.534 1055.94 196.652 1055.51 196.652 1055.05V1053.52C196.581 1053.6 196.425 1053.68 196.183 1053.75C195.947 1053.82 195.672 1053.88 195.36 1053.93C195.052 1053.98 194.751 1054.02 194.458 1054.06C194.169 1054.09 193.934 1054.12 193.754 1054.14C193.319 1054.2 192.912 1054.29 192.533 1054.42C192.159 1054.54 191.856 1054.73 191.624 1054.98C191.396 1055.23 191.283 1055.56 191.283 1055.99C191.283 1056.57 191.498 1057.01 191.929 1057.31C192.365 1057.6 192.916 1057.75 193.584 1057.75ZM203.064 1044.45V1059H201.388V1044.45H203.064ZM211.986 1044.45H214.088L219.031 1056.53H219.202L224.145 1044.45H226.247V1059H224.6V1047.95H224.458L219.912 1059H218.321L213.776 1047.95H213.634V1059H211.986V1044.45ZM232.762 1059.26C232.071 1059.26 231.443 1059.13 230.88 1058.87C230.316 1058.6 229.869 1058.22 229.537 1057.72C229.206 1057.22 229.04 1056.61 229.04 1055.9C229.04 1055.28 229.163 1054.77 229.41 1054.38C229.656 1053.99 229.985 1053.68 230.397 1053.46C230.809 1053.24 231.263 1053.07 231.76 1052.96C232.262 1052.85 232.767 1052.76 233.273 1052.69C233.936 1052.61 234.474 1052.54 234.885 1052.5C235.302 1052.45 235.605 1052.38 235.795 1052.27C235.989 1052.16 236.086 1051.97 236.086 1051.7V1051.64C236.086 1050.94 235.894 1050.4 235.51 1050.01C235.132 1049.62 234.556 1049.43 233.785 1049.43C232.984 1049.43 232.357 1049.6 231.903 1049.95C231.448 1050.3 231.128 1050.68 230.944 1051.07L229.353 1050.51C229.637 1049.84 230.016 1049.33 230.489 1048.96C230.967 1048.58 231.488 1048.32 232.052 1048.18C232.62 1048.02 233.179 1047.95 233.728 1047.95C234.078 1047.95 234.481 1047.99 234.935 1048.08C235.394 1048.16 235.837 1048.33 236.263 1048.58C236.694 1048.84 237.052 1049.22 237.336 1049.74C237.62 1050.25 237.762 1050.95 237.762 1051.81V1059H236.086V1057.52H236.001C235.887 1057.76 235.698 1058.01 235.432 1058.28C235.167 1058.55 234.814 1058.78 234.374 1058.97C233.934 1059.16 233.396 1059.26 232.762 1059.26ZM233.018 1057.75C233.68 1057.75 234.239 1057.62 234.694 1057.36C235.153 1057.1 235.499 1056.76 235.731 1056.35C235.967 1055.94 236.086 1055.51 236.086 1055.05V1053.52C236.015 1053.6 235.858 1053.68 235.617 1053.75C235.38 1053.82 235.106 1053.88 234.793 1053.93C234.485 1053.98 234.185 1054.02 233.891 1054.06C233.602 1054.09 233.368 1054.12 233.188 1054.14C232.752 1054.2 232.345 1054.29 231.966 1054.42C231.592 1054.54 231.289 1054.73 231.057 1054.98C230.83 1055.23 230.716 1055.56 230.716 1055.99C230.716 1056.57 230.932 1057.01 231.363 1057.31C231.798 1057.6 232.35 1057.75 233.018 1057.75ZM242.497 1052.44V1059H240.821V1048.09H242.441V1049.8H242.583C242.838 1049.24 243.227 1048.8 243.747 1048.46C244.268 1048.12 244.941 1047.95 245.764 1047.95C246.503 1047.95 247.149 1048.1 247.703 1048.4C248.257 1048.7 248.688 1049.16 248.996 1049.77C249.304 1050.37 249.458 1051.14 249.458 1052.07V1059H247.781V1052.18C247.781 1051.32 247.559 1050.66 247.114 1050.18C246.669 1049.7 246.058 1049.45 245.281 1049.45C244.746 1049.45 244.268 1049.57 243.847 1049.8C243.43 1050.03 243.101 1050.37 242.86 1050.82C242.618 1051.26 242.497 1051.8 242.497 1052.44Z" fill="#D9D9D9"/>
</g>
<rect x="0.5" y="0.5" width="1919" height="1079" stroke="black"/>
<defs>
<clipPath id="clip0_18_579">
<rect width="1920" height="1080" fill="white"/>
</clipPath>
</defs>
</svg>
